<?xml version="1.0" encoding="utf-8"?>
<!-- Generator: Adobe Illustrator 25.4.1, SVG Export Plug-In . SVG Version: 6.00 Build 0)  -->
<svg version="1.1" id="レイヤー_1" xmlns="http://www.w3.org/2000/svg" xmlns:xlink="http://www.w3.org/1999/xlink" x="0px"
	 y="0px" viewBox="0 0 212 213" style="enable-background:new 0 0 212 213;" xml:space="preserve">
<style type="text/css">
	.st0{fill:#FFFFFF;}
</style>
<path id="パス_34" class="st0" d="M139.66,29.66C109.42-0.56,60.4-0.55,30.17,29.69C-0.05,59.93-0.04,108.95,30.2,139.18
	c26.55,26.54,68.32,30.21,99.09,8.7l53.81,53.81c5.34,5.2,13.89,5.07,19.08-0.27c5.09-5.24,5.09-13.58,0-18.81l-53.81-53.81
	C169.84,98,166.17,56.24,139.66,29.66z M126.94,126.44c-23.21,23.21-60.84,23.21-84.06,0c-23.21-23.21-23.21-60.84,0-84.06
	s60.84-23.21,84.06,0c0,0,0,0,0,0c23.17,23.23,23.16,60.84-0.02,84.06H126.94z"/>
</svg>
