<svg id="レイヤー_1" data-name="レイヤー 1" xmlns="http://www.w3.org/2000/svg" viewBox="0 0 63.44 232.85"><defs><style>.cls-1{fill:#cfcfcf;}.cls-2{fill:#545454;stroke:#545454;stroke-miterlimit:10;stroke-width:1.49px;}</style></defs><path class="cls-1" d="M31.72,0h0A31.72,31.72,0,0,1,63.44,31.72V232.85a0,0,0,0,1,0,0H0a0,0,0,0,1,0,0V31.72A31.72,31.72,0,0,1,31.72,0Z"/><path class="cls-2" d="M32.85,44.2a1.58,1.58,0,0,0-2.22,0L14,60.76A1.56,1.56,0,0,0,14,63a1.59,1.59,0,0,0,2.23,0L31.74,47.51,47.29,63a1.59,1.59,0,0,0,2.23,0,1.56,1.56,0,0,0,0-2.21L32.85,44.2Z" transform="translate(-0.02 -0.33)"/></svg>