<svg id="レイヤー_1" data-name="レイヤー 1" xmlns="http://www.w3.org/2000/svg" viewBox="0 0 63.44 232.85"><defs><style>.cls-1{fill:#cfcfcf;}.cls-2{fill:#545454;stroke:#545454;stroke-miterlimit:10;stroke-width:1.49px;}</style></defs><path class="cls-1" d="M31.74.33h0A31.72,31.72,0,0,1,63.46,32.05V233.18a0,0,0,0,1,0,0H0a0,0,0,0,1,0,0V32.05A31.72,31.72,0,0,1,31.74.33Z" transform="translate(63.46 233.18) rotate(-180)"/><path class="cls-2" d="M30.63,189.32a1.59,1.59,0,0,0,2.22,0l16.67-16.56a1.56,1.56,0,0,0,0-2.21,1.59,1.59,0,0,0-2.23,0L31.74,186,16.19,170.55a1.59,1.59,0,0,0-2.23,0,1.56,1.56,0,0,0,0,2.21l16.67,16.56Z" transform="translate(-0.02 -0.33)"/></svg>