<?xml version="1.0" encoding="utf-8"?>
<!-- Generator: Adobe Illustrator 25.4.1, SVG Export Plug-In . SVG Version: 6.00 Build 0)  -->
<svg version="1.1" id="レイヤー_1" xmlns="http://www.w3.org/2000/svg" xmlns:xlink="http://www.w3.org/1999/xlink" x="0px"
	 y="0px" viewBox="0 0 212 213" style="enable-background:new 0 0 212 213;" xml:space="preserve">
<style type="text/css">
	.st0{clip-path:url(#SVGID_00000075145987870850096010000004484659622560327581_);}
	.st1{fill:#545454;}
</style>
<g>
	<defs>
		<rect id="SVGID_1_" x="11" y="13.85" width="191.53" height="180.31"/>
	</defs>
	<clipPath id="SVGID_00000167375701383828757080000000110455793477887910_">
		<use xlink:href="#SVGID_1_"  style="overflow:visible;"/>
	</clipPath>
	
		<g id="グループ_672" transform="translate(0 -0.004)" style="clip-path:url(#SVGID_00000167375701383828757080000000110455793477887910_);">
		<path id="パス_2435" class="st1" d="M202.4,63.04l-9.02,42.45c-0.1,1.86-1.69,3.28-3.55,3.18c-0.87-0.05-1.68-0.43-2.27-1.06
			l-34.19-26.75c-2.52-2-2.12-4.5,0.89-5.6l16.95-6.15C151.96,30.44,105.01,14.7,66.34,33.96s-54.41,66.21-35.16,104.88
			s66.21,54.41,104.88,35.16c3.31-1.65,6.51-3.53,9.55-5.64c2.54-2.13,6.33-1.8,8.47,0.74c2.13,2.54,1.8,6.33-0.74,8.47
			c-0.29,0.24-0.6,0.46-0.93,0.64c-40.96,28.32-97.11,18.07-125.43-22.89S8.92,58.2,49.87,29.89c15.07-10.42,32.96-16,51.28-16
			c34.71-0.14,66.38,19.76,81.31,51.09l15.67-5.69c3.01-1.1,4.94,0.57,4.27,3.72"/>
	</g>
</g>
</svg>
