<?xml version="1.0" encoding="UTF-8"?>
<!DOCTYPE svg PUBLIC "-//W3C//DTD SVG 1.1//EN" "http://www.w3.org/Graphics/SVG/1.1/DTD/svg11.dtd">
<svg xmlns="http://www.w3.org/2000/svg" version="1.1" width="210px" height="74px" style="shape-rendering:geometricPrecision; text-rendering:geometricPrecision; image-rendering:optimizeQuality; fill-rule:evenodd; clip-rule:evenodd" xmlns:xlink="http://www.w3.org/1999/xlink">
<g><path style="opacity:1" fill="#ee1921" d="M 63.5,0.5 C 63.5,0.166667 63.5,-0.166667 63.5,-0.5C 64.8333,-0.5 66.1667,-0.5 67.5,-0.5C 68.6005,0.60486 69.2671,1.93819 69.5,3.5C 68.2058,2.7101 67.0391,1.7101 66,0.5C 65.6667,1.16667 65.3333,1.83333 65,2.5C 64.7216,1.5842 64.2216,0.917533 63.5,0.5 Z"/></g>
<g><path style="opacity:1" fill="#ee1920" d="M 63.5,0.5 C 62.4884,1.87165 61.4884,3.20498 60.5,4.5C 60.0882,2.02741 61.0882,0.694079 63.5,0.5 Z"/></g>
<g><path style="opacity:1" fill="#ec1b23" d="M 63.5,0.5 C 64.2216,0.917533 64.7216,1.5842 65,2.5C 65.3333,1.83333 65.6667,1.16667 66,0.5C 67.0391,1.7101 68.2058,2.7101 69.5,3.5C 66.2457,20.1062 63.2457,36.7729 60.5,53.5C 58.3023,53.4088 57.9689,54.0755 59.5,55.5C 59.6655,59.5138 59.4988,63.5138 59,67.5C 56.7569,69.282 54.2569,69.782 51.5,69C 39.6345,54.1111 29.1345,38.2778 20,21.5C 18.5468,24.2976 17.5468,27.2976 17,30.5C 14.7721,42.7618 13.1054,55.0951 12,67.5C 7.33445,74.1144 4.16779,73.281 2.5,65C 2.99015,62.6539 3.65682,60.4872 4.5,58.5C 5.28913,58.2172 5.9558,57.7172 6.5,57C 6.11639,56.0494 5.78306,55.2161 5.5,54.5C 5.23219,52.901 5.56552,51.5676 6.5,50.5C 7.28913,50.2172 7.9558,49.7172 8.5,49C 8.38093,47.8552 8.0476,46.6885 7.5,45.5C 7.32526,43.3792 7.65859,41.3792 8.5,39.5C 10.5567,37.9567 10.5567,36.9567 8.5,36.5C 9.5,32.5 10.5,28.5 11.5,24.5C 12.2674,23.828 12.9341,22.9947 13.5,22C 13.1164,21.0494 12.7831,20.2161 12.5,19.5C 12.5,19.1667 12.5,18.8333 12.5,18.5C 13.2674,17.828 13.9341,16.9947 14.5,16C 13.6634,14.9887 13.33,13.8221 13.5,12.5C 13.5,10.1667 13.5,7.83333 13.5,5.5C 15.8023,7.0773 17.3023,6.41063 18,3.5C 18.6667,4.16667 19.3333,4.83333 20,5.5C 20.6708,4.74756 21.5041,4.41423 22.5,4.5C 22.5,5.16667 22.5,5.83333 22.5,6.5C 20.9219,8.37473 21.2552,9.70806 23.5,10.5C 24.871,12.936 25.871,15.6027 26.5,18.5C 26.2291,20.3797 26.8958,21.713 28.5,22.5C 29.6737,23.5137 30.3404,24.847 30.5,26.5C 29.9531,28.712 30.9531,30.3787 33.5,31.5C 33.5,32.8333 34.1667,33.5 35.5,33.5C 36.6005,34.6049 37.2671,35.9382 37.5,37.5C 37.6696,40.204 39.0029,41.8707 41.5,42.5C 41.5,42.8333 41.5,43.1667 41.5,43.5C 41.5,44.8333 42.1667,45.5 43.5,45.5C 43.5,45.8333 43.5,46.1667 43.5,46.5C 43.0618,46.4346 42.7284,46.6012 42.5,47C 44.0488,48.214 45.2155,49.714 46,51.5C 46.6708,52.2524 47.5041,52.5858 48.5,52.5C 49.3149,53.4293 50.1482,54.4293 51,55.5C 51.3826,54.944 51.8826,54.6107 52.5,54.5C 54.9327,53.4523 54.9327,52.7856 52.5,52.5C 52.5569,51.391 52.8902,50.391 53.5,49.5C 54.2674,48.828 54.9341,47.9947 55.5,47C 55.2716,46.6012 54.9382,46.4346 54.5,46.5C 54.6587,42.7091 55.3254,39.0424 56.5,35.5C 57.2891,35.2172 57.9558,34.7172 58.5,34C 57.6634,32.9887 57.33,31.8221 57.5,30.5C 57.298,28.0504 57.6314,25.717 58.5,23.5C 60.5567,21.9567 60.5567,20.9567 58.5,20.5C 59.226,15.1841 59.8927,9.85074 60.5,4.5C 61.4884,3.20498 62.4884,1.87165 63.5,0.5 Z"/></g>
<g><path style="opacity:1" fill="#ee1921" d="M 22.5,4.5 C 21.5041,4.41423 20.6708,4.74756 20,5.5C 19.3333,4.83333 18.6667,4.16667 18,3.5C 17.3023,6.41063 15.8023,7.0773 13.5,5.5C 16.1225,1.90969 19.1225,1.57636 22.5,4.5 Z"/></g>
<g><path style="opacity:1" fill="#ed1a21" d="M 22.5,6.5 C 23.4345,7.56764 23.7678,8.90097 23.5,10.5C 21.2552,9.70806 20.9219,8.37473 22.5,6.5 Z"/></g>
<g><path style="opacity:1" fill="#ee1921" d="M 13.5,12.5 C 13.33,13.8221 13.6634,14.9887 14.5,16C 13.9341,16.9947 13.2674,17.828 12.5,18.5C 12.2053,16.2646 12.5386,14.2646 13.5,12.5 Z"/></g>
<g><path style="opacity:1" fill="#ec1b23" d="M 112.5,18.5 C 112.343,19.8734 112.51,21.2068 113,22.5C 113.278,21.5842 113.778,20.9175 114.5,20.5C 116.136,25.53 115.303,30.1967 112,34.5C 104.962,41.2686 97.129,46.9353 88.5,51.5C 87.2706,54.1987 87.2706,56.8654 88.5,59.5C 88.5,60.8333 89.1667,61.5 90.5,61.5C 91.4916,61.3284 92.1583,61.6618 92.5,62.5C 92.4614,63.7562 92.9614,64.7562 94,65.5C 95.1451,64.3636 96.3117,63.3636 97.5,62.5C 98.1667,62.5 98.8333,62.5 99.5,62.5C 100.75,62.5774 101.583,63.244 102,64.5C 102.483,63.552 102.649,62.552 102.5,61.5C 104.05,60.5592 105.716,59.8925 107.5,59.5C 109.404,59.2624 110.738,58.2624 111.5,56.5C 111.833,55.5 112.5,54.8333 113.5,54.5C 115.833,55.5 116.5,54.8333 115.5,52.5C 117.062,52.7329 118.395,53.3995 119.5,54.5C 111.414,68.3609 99.7476,72.8609 84.5,68C 78.8312,62.124 77.1646,55.2907 79.5,47.5C 81.7448,46.7081 82.0781,45.3747 80.5,43.5C 81.2205,39.3114 82.8872,35.6448 85.5,32.5C 87.2624,31.7377 88.2624,30.4044 88.5,28.5C 88.5,28.1667 88.5,27.8333 88.5,27.5C 89.2216,27.9175 89.7216,28.5842 90,29.5C 90.49,28.2068 90.6567,26.8734 90.5,25.5C 90.5,24.8333 90.8333,24.5 91.5,24.5C 93.7488,23.9202 95.4154,22.5869 96.5,20.5C 99.3325,21.9816 100.332,21.315 99.5,18.5C 103.863,15.9099 108.196,15.9099 112.5,18.5 Z M 98.5,38.5 C 96.9731,38.427 95.9731,39.0937 95.5,40.5C 93.1386,41.4348 90.9719,42.7682 89,44.5C 90.1068,34.5527 95.2735,27.5527 104.5,23.5C 106.5,23.5 107.5,24.5 107.5,26.5C 106.863,29.1071 105.696,31.4404 104,33.5C 101.809,34.8334 99.976,36.5 98.5,38.5 Z"/></g>
<g><path style="opacity:1" fill="#ee1921" d="M 207.5,19.5 C 206.12,20.7065 204.953,20.3731 204,18.5C 203.667,19.5 203.333,20.5 203,21.5C 202.722,20.5842 202.222,19.9175 201.5,19.5C 202.134,18.0532 203.301,17.3866 205,17.5C 206.376,17.6842 207.209,18.3509 207.5,19.5 Z"/></g>
<g><path style="opacity:1" fill="#ee1920" d="M 26.5,18.5 C 27.6737,19.5137 28.3404,20.847 28.5,22.5C 26.8958,21.713 26.2291,20.3797 26.5,18.5 Z"/></g>
<g><path style="opacity:1" fill="#ee1921" d="M 99.5,18.5 C 100.332,21.315 99.3325,21.9816 96.5,20.5C 96.9731,19.0937 97.9731,18.427 99.5,18.5 Z"/></g>
<g><path style="opacity:1" fill="#ee1920" d="M 112.5,18.5 C 113.5,18.8333 114.167,19.5 114.5,20.5C 113.778,20.9175 113.278,21.5842 113,22.5C 112.51,21.2068 112.343,19.8734 112.5,18.5 Z"/></g>
<g><path style="opacity:1" fill="#ec1b23" d="M 140.5,39.5 C 138.219,40.6344 138.219,41.9678 140.5,43.5C 141.608,48.8886 143.774,53.8886 147,58.5C 147.708,57.6195 148.542,56.9528 149.5,56.5C 150.906,56.0269 151.573,55.0269 151.5,53.5C 155.328,45.1729 159.662,37.1729 164.5,29.5C 165.906,29.0269 166.573,28.0269 166.5,26.5C 166.5,26.1667 166.5,25.8333 166.5,25.5C 167.222,25.9175 167.722,26.5842 168,27.5C 169.334,26.1221 169.501,24.7887 168.5,23.5C 168.5,22.8333 168.833,22.5 169.5,22.5C 170.222,22.9175 170.722,23.5842 171,24.5C 171.278,23.5842 171.778,22.9175 172.5,22.5C 174.805,24.6292 175.139,27.1292 173.5,30C 174.396,37.1838 176.396,44.0171 179.5,50.5C 178.708,52.7564 179.708,54.0897 182.5,54.5C 182.973,55.9063 183.973,56.573 185.5,56.5C 187.762,55.6551 188.429,54.3217 187.5,52.5C 187.433,51.0413 187.766,49.7079 188.5,48.5C 190.213,47.3646 190.88,45.698 190.5,43.5C 190.5,43.1667 190.5,42.8333 190.5,42.5C 191.627,41.8783 192.627,41.045 193.5,40C 194.166,38.3395 194.166,36.5062 193.5,34.5C 194.421,30.701 196.088,27.3677 198.5,24.5C 200.727,23.5994 201.727,21.9328 201.5,19.5C 202.222,19.9175 202.722,20.5842 203,21.5C 203.333,20.5 203.667,19.5 204,18.5C 204.953,20.3731 206.12,20.7065 207.5,19.5C 208.573,20.2506 208.74,21.2506 208,22.5C 205.079,27.3413 202.412,32.3413 200,37.5C 196.75,47.5866 192.917,57.4199 188.5,67C 184.412,67.7111 180.912,66.5445 178,63.5C 173.748,55.0782 170.082,46.4115 167,37.5C 162.524,46.5889 157.858,55.5889 153,64.5C 151.321,67.5125 148.987,69.8459 146,71.5C 144.527,71.0969 143.194,70.4303 142,69.5C 133.905,54.7934 130.405,39.1267 131.5,22.5C 133.1,23.512 134.434,23.012 135.5,21C 134.944,20.6174 134.611,20.1174 134.5,19.5C 136.489,18.1134 138.322,18.4468 140,20.5C 140.5,26.8246 140.666,33.1579 140.5,39.5 Z"/></g>
<g><path style="opacity:1" fill="#ee1a21" d="M 12.5,19.5 C 12.7831,20.2161 13.1164,21.0494 13.5,22C 12.9341,22.9947 12.2674,23.828 11.5,24.5C 11.2155,22.5853 11.5489,20.9187 12.5,19.5 Z"/></g>
<g><path style="opacity:1" fill="#ee1920" d="M 58.5,20.5 C 60.5567,20.9567 60.5567,21.9567 58.5,23.5C 58.5,22.5 58.5,21.5 58.5,20.5 Z"/></g>
<g><path style="opacity:1" fill="#ed1a21" d="M 134.5,19.5 C 134.611,20.1174 134.944,20.6174 135.5,21C 134.434,23.012 133.1,23.512 131.5,22.5C 132.167,21.1667 133.167,20.1667 134.5,19.5 Z"/></g>
<g><path style="opacity:1" fill="#ee1920" d="M 169.5,22.5 C 170.5,21.1667 171.5,21.1667 172.5,22.5C 171.778,22.9175 171.278,23.5842 171,24.5C 170.722,23.5842 170.222,22.9175 169.5,22.5 Z"/></g>
<g><path style="opacity:1" fill="#ee1921" d="M 96.5,20.5 C 95.4154,22.5869 93.7488,23.9202 91.5,24.5C 92.5846,22.4131 94.2512,21.0798 96.5,20.5 Z"/></g>
<g><path style="opacity:1" fill="#ee1921" d="M 201.5,19.5 C 201.727,21.9328 200.727,23.5994 198.5,24.5C 198.75,22.326 199.75,20.6594 201.5,19.5 Z"/></g>
<g><path style="opacity:1" fill="#ee1a21" d="M 168.5,23.5 C 169.501,24.7887 169.334,26.1221 168,27.5C 167.722,26.5842 167.222,25.9175 166.5,25.5C 166.833,24.5 167.5,23.8333 168.5,23.5 Z"/></g>
<g><path style="opacity:1" fill="#ee1920" d="M 90.5,25.5 C 90.6567,26.8734 90.49,28.2068 90,29.5C 89.7216,28.5842 89.2216,27.9175 88.5,27.5C 88.8333,26.5 89.5,25.8333 90.5,25.5 Z"/></g>
<g><path style="opacity:1" fill="#ee1920" d="M 166.5,26.5 C 166.573,28.0269 165.906,29.0269 164.5,29.5C 164.427,27.9731 165.094,26.9731 166.5,26.5 Z"/></g>
<g><path style="opacity:1" fill="#ed1a21" d="M 30.5,26.5 C 31.8897,27.8993 32.8897,29.5659 33.5,31.5C 30.9531,30.3787 29.9531,28.712 30.5,26.5 Z"/></g>
<g><path style="opacity:1" fill="#ee1921" d="M 57.5,30.5 C 57.33,31.8221 57.6634,32.9887 58.5,34C 57.9558,34.7172 57.2891,35.2172 56.5,35.5C 56.2155,33.5853 56.5489,31.9187 57.5,30.5 Z"/></g>
<g><path style="opacity:1" fill="#ee1921" d="M 88.5,28.5 C 88.2624,30.4044 87.2624,31.7377 85.5,32.5C 85.7376,30.5956 86.7376,29.2623 88.5,28.5 Z"/></g>
<g><path style="opacity:1" fill="#ee1920" d="M 33.5,31.5 C 34.5,31.8333 35.1667,32.5 35.5,33.5C 34.1667,33.5 33.5,32.8333 33.5,31.5 Z"/></g>
<g><path style="opacity:1" fill="#ee1920" d="M 8.5,36.5 C 10.5567,36.9567 10.5567,37.9567 8.5,39.5C 8.5,38.5 8.5,37.5 8.5,36.5 Z"/></g>
<g><path style="opacity:1" fill="#ee1921" d="M 193.5,34.5 C 194.166,36.5062 194.166,38.3395 193.5,40C 192.627,41.045 191.627,41.8783 190.5,42.5C 191.129,39.6027 192.129,36.936 193.5,34.5 Z"/></g>
<g><path style="opacity:1" fill="#ee1921" d="M 37.5,37.5 C 39.0627,38.9448 40.396,40.6115 41.5,42.5C 39.0029,41.8707 37.6696,40.204 37.5,37.5 Z"/></g>
<g><path style="opacity:1" fill="#ee1a21" d="M 98.5,38.5 C 97.7582,40.3497 96.7582,41.0164 95.5,40.5C 95.9731,39.0937 96.9731,38.427 98.5,38.5 Z"/></g>
<g><path style="opacity:1" fill="#ee1921" d="M 140.5,39.5 C 140.5,40.8333 140.5,42.1667 140.5,43.5C 138.219,41.9678 138.219,40.6344 140.5,39.5 Z"/></g>
<g><path style="opacity:1" fill="#ee1920" d="M 41.5,43.5 C 42.5,43.8333 43.1667,44.5 43.5,45.5C 42.1667,45.5 41.5,44.8333 41.5,43.5 Z"/></g>
<g><path style="opacity:1" fill="#ee1921" d="M 80.5,43.5 C 82.0781,45.3747 81.7448,46.7081 79.5,47.5C 79.2322,45.901 79.5655,44.5676 80.5,43.5 Z"/></g>
<g><path style="opacity:1" fill="#ee1920" d="M 190.5,43.5 C 190.88,45.698 190.213,47.3646 188.5,48.5C 188.796,46.597 189.463,44.9303 190.5,43.5 Z"/></g>
<g><path style="opacity:1" fill="#ed1a21" d="M 7.5,45.5 C 8.0476,46.6885 8.38093,47.8552 8.5,49C 7.9558,49.7172 7.28913,50.2172 6.5,50.5C 6.21552,48.5853 6.54885,46.9187 7.5,45.5 Z"/></g>
<g><path style="opacity:1" fill="#ee1920" d="M 54.5,46.5 C 54.9382,46.4346 55.2716,46.6012 55.5,47C 54.9341,47.9947 54.2674,48.828 53.5,49.5C 53.2627,48.209 53.596,47.209 54.5,46.5 Z"/></g>
<g><path style="opacity:1" fill="#ee1a21" d="M 43.5,46.5 C 45.6326,48.0905 47.2993,50.0905 48.5,52.5C 47.5041,52.5858 46.6708,52.2524 46,51.5C 45.2155,49.714 44.0488,48.214 42.5,47C 42.7284,46.6012 43.0618,46.4346 43.5,46.5 Z"/></g>
<g><path style="opacity:1" fill="#ed1a21" d="M 119.5,54.5 C 118.395,53.3995 117.062,52.7329 115.5,52.5C 117.428,48.6651 119.095,48.6651 120.5,52.5C 120.457,53.4164 120.124,54.0831 119.5,54.5 Z"/></g>
<g><path style="opacity:1" fill="#ed1a21" d="M 179.5,50.5 C 180.488,51.795 181.488,53.1283 182.5,54.5C 179.708,54.0897 178.708,52.7564 179.5,50.5 Z"/></g>
<g><path style="opacity:1" fill="#ee1920" d="M 52.5,52.5 C 54.9327,52.7856 54.9327,53.4523 52.5,54.5C 52.5,53.8333 52.5,53.1667 52.5,52.5 Z"/></g>
<g><path style="opacity:1" fill="#ee1920" d="M 60.5,53.5 C 60.6716,54.4916 60.3382,55.1583 59.5,55.5C 57.9689,54.0755 58.3023,53.4088 60.5,53.5 Z"/></g>
<g><path style="opacity:1" fill="#ee1a21" d="M 115.5,52.5 C 116.5,54.8333 115.833,55.5 113.5,54.5C 113.833,53.5 114.5,52.8333 115.5,52.5 Z"/></g>
<g><path style="opacity:1" fill="#ee1920" d="M 151.5,53.5 C 151.573,55.0269 150.906,56.0269 149.5,56.5C 149.427,54.9731 150.094,53.9731 151.5,53.5 Z"/></g>
<g><path style="opacity:1" fill="#ee1a21" d="M 5.5,54.5 C 5.78306,55.2161 6.11639,56.0494 6.5,57C 5.9558,57.7172 5.28913,58.2172 4.5,58.5C 4.23219,56.901 4.56552,55.5676 5.5,54.5 Z"/></g>
<g><path style="opacity:1" fill="#ee1921" d="M 187.5,52.5 C 188.429,54.3217 187.762,55.6551 185.5,56.5C 185.66,54.847 186.326,53.5137 187.5,52.5 Z"/></g>
<g><path style="opacity:1" fill="#ee1921" d="M 111.5,56.5 C 110.738,58.2624 109.404,59.2624 107.5,59.5C 108.262,57.7376 109.596,56.7376 111.5,56.5 Z"/></g>
<g><path style="opacity:1" fill="#ee1920" d="M 88.5,59.5 C 89.5,59.8333 90.1667,60.5 90.5,61.5C 89.1667,61.5 88.5,60.8333 88.5,59.5 Z"/></g>
<g><path style="opacity:1" fill="#ee1920" d="M 99.5,62.5 C 100.209,61.596 101.209,61.2627 102.5,61.5C 102.649,62.552 102.483,63.552 102,64.5C 101.583,63.244 100.75,62.5774 99.5,62.5 Z"/></g>
<g><path style="opacity:1" fill="#ee1921" d="M 92.5,62.5 C 94.1667,62.5 95.8333,62.5 97.5,62.5C 96.3117,63.3636 95.1451,64.3636 94,65.5C 92.9614,64.7562 92.4614,63.7562 92.5,62.5 Z"/></g>
</svg>
