<?xml version="1.0" encoding="UTF-8"?>
<!DOCTYPE svg PUBLIC "-//W3C//DTD SVG 1.1//EN" "http://www.w3.org/Graphics/SVG/1.1/DTD/svg11.dtd">
<svg xmlns="http://www.w3.org/2000/svg" version="1.1" width="23px" height="18px" style="shape-rendering:geometricPrecision; text-rendering:geometricPrecision; image-rendering:optimizeQuality; fill-rule:evenodd; clip-rule:evenodd" xmlns:xlink="http://www.w3.org/1999/xlink">
<g><path style="opacity:1" fill="#b7e58b" d="M 11.5,3.5 C 11.4142,4.4959 11.7476,5.32924 12.5,6C 11.9056,6.46434 11.2389,6.63101 10.5,6.5C 9.05817,5.18047 8.39151,3.5138 8.5,1.5C 10.1788,1.28519 11.1788,1.95186 11.5,3.5 Z"/></g>
<g><path style="opacity:1" fill="#58d56a" d="M 11.5,3.5 C 13.1454,4.47866 14.4787,5.812 15.5,7.5C 15.1445,8.5223 14.4778,9.18897 13.5,9.5C 12.609,8.89022 11.609,8.55688 10.5,8.5C -0.166667,7.83333 -0.166667,7.16667 10.5,6.5C 11.2389,6.63101 11.9056,6.46434 12.5,6C 11.7476,5.32924 11.4142,4.4959 11.5,3.5 Z"/></g>
<g><path style="opacity:1" fill="#a7e289" d="M 10.5,8.5 C 11.609,8.55688 12.609,8.89022 13.5,9.5C 12.6473,11.8927 10.9806,13.226 8.5,13.5C 8.39151,11.4862 9.05817,9.81953 10.5,8.5 Z"/></g>
</svg>
