<?xml version="1.0" encoding="utf-8"?>
<!-- Generator: Adobe Illustrator 25.4.1, SVG Export Plug-In . SVG Version: 6.00 Build 0)  -->
<svg version="1.1" xmlns="http://www.w3.org/2000/svg" xmlns:xlink="http://www.w3.org/1999/xlink" x="0px" y="0px"
	 viewBox="0 0 300 300" style="enable-background:new 0 0 300 300;" xml:space="preserve">
<style type="text/css">
	.st0{display:none;}
	.st1{display:inline;}
	.st2{fill:#ED1C24;}
	.st3{fill:#F15A24;}
	.st4{fill:#F7931E;}
	.st5{fill:#8CC63F;}
	.st6{fill:#009B73;}
</style>
<g id="レイヤー_1" class="st0">
	<g class="st1">
		<g>
			<path class="st2" d="M149.96,294.98c-40.02,0-74.27-14.13-102.58-42.44C19.07,224.27,4.9,190.09,4.9,150
				c0-40.06,14.17-74.2,42.48-102.5C75.69,19.11,109.94,5.02,149.96,5.02c40.09,0,74.32,14.09,102.66,42.48
				C280.93,75.8,295.1,109.94,295.1,150c0,40.09-14.17,74.27-42.48,102.54C224.27,280.85,190.05,294.98,149.96,294.98z
				 M149.96,276.56c35.01,0,64.87-12.35,89.6-37.04c24.69-24.73,37.08-54.46,37.08-89.44c0-34.94-12.39-64.75-37.08-89.52
				c-24.73-24.7-54.59-37.12-89.6-37.12c-34.94,0-64.79,12.42-89.48,37.12C35.74,85.33,23.4,115.14,23.4,150.08
				c0,34.98,12.35,64.71,37.08,89.44C85.17,264.21,115.02,276.56,149.96,276.56z"/>
		</g>
		<g>
			<path class="st2" d="M98.59,204.96c-1.51,0-3.05-0.46-4.41-1.43c-3.41-2.42-4.21-7.19-1.74-10.6
				c13.22-18.52,34.66-29.57,57.32-29.57c11.2,0,21.87,2.56,31.8,7.6c9.45,4.78,17.82,11.79,24.22,20.26
				c2.54,3.34,1.87,8.1-1.47,10.64c-3.33,2.54-8.1,1.89-10.64-1.47c-10.52-13.87-26.52-21.83-43.91-21.83
				c-17.79,0-34.58,8.68-44.98,23.2C103.32,203.85,100.97,204.96,98.59,204.96z"/>
		</g>
		<g>
			<g>
				<path class="st2" d="M107.01,144.38c-1.99,0-3.93-0.76-5.4-2.24c-11.44-11.45-26.84-26.82-27-26.98
					c-2.94-2.96-2.98-7.78,0-10.76c2.98-2.96,7.78-2.98,10.76,0c0.16,0.16,15.56,15.54,26.99,27.01c2.98,2.96,2.98,7.78,0,10.74
					C110.86,143.63,108.91,144.38,107.01,144.38z"/>
			</g>
			<g>
				<path class="st2" d="M80.01,144.38c-1.94,0-3.89-0.76-5.4-2.22c-2.94-2.96-2.98-7.78,0-10.76c0.16-0.14,15.6-15.62,27-26.99
					c2.98-2.98,7.78-2.96,10.76,0.02c2.98,2.96,2.98,7.78,0,10.74c-11.43,11.37-26.83,26.82-26.99,26.98
					C83.9,143.63,81.96,144.38,80.01,144.38z"/>
			</g>
		</g>
		<g>
			<g>
				<path class="st2" d="M218.56,144.38c-1.94,0-3.89-0.76-5.4-2.22c-11.43-11.46-26.92-26.84-27.03-27
					c-2.98-2.96-3.02-7.76-0.04-10.74c2.94-2.98,7.78-3,10.76-0.04c0.12,0.16,15.6,15.54,27.08,27.01c2.98,2.98,2.98,7.78,0,10.76
					C222.41,143.63,220.51,144.38,218.56,144.38z"/>
			</g>
			<g>
				<path class="st2" d="M191.48,144.38c-1.94,0-3.89-0.76-5.4-2.22c-2.98-2.98-2.98-7.78,0-10.76
					c0.16-0.16,15.64-15.62,27.11-27.01c2.98-2.96,7.78-2.94,10.72,0.04c2.98,2.98,2.94,7.78-0.04,10.74
					c-11.44,11.37-26.88,26.84-27.04,27C195.33,143.63,193.43,144.38,191.48,144.38z"/>
			</g>
		</g>
	</g>
</g>
<g id="_x32_" class="st0">
	<g class="st1">
		<g>
			<g>
				<path class="st3" d="M150.02,295c-40.1,0-74.32-14.18-102.62-42.52c-28.34-28.23-42.52-62.45-42.52-102.5
					c0-40.06,14.17-74.24,42.52-102.54C75.7,19.09,109.92,5,150.02,5c40.05,0,74.27,14.09,102.62,42.44
					c28.27,28.31,42.48,62.49,42.48,102.54c0,40.05-14.21,74.27-42.48,102.5C224.3,280.82,190.08,295,150.02,295z M150.02,276.5
					c34.97,0,64.83-12.27,89.52-37.04c24.77-24.65,37.08-54.46,37.08-89.44c0-34.93-12.31-64.75-37.08-89.44
					c-24.69-24.77-54.55-37.12-89.52-37.12c-35.02,0-64.87,12.35-89.56,37.12c-24.69,24.69-37.08,54.51-37.08,89.44
					c0,34.98,12.39,64.79,37.08,89.44C85.15,264.23,115.01,276.5,150.02,276.5z"/>
			</g>
			<g>
				<path class="st3" d="M207.07,138.29c-9.13,0-17.43-5.42-23.38-15.26c-1.98-3.3-0.93-7.58,2.38-9.59
					c3.29-1.98,7.58-0.93,9.57,2.37c1.91,3.2,6,8.55,11.44,8.55c5.12,0,9.09-4.88,10.96-7.8c2.11-3.22,6.43-4.13,9.65-2.02
					c3.26,2.09,4.17,6.41,2.07,9.63C223.78,133.26,215.72,138.29,207.07,138.29z"/>
			</g>
			<g>
				<path class="st3" d="M94.28,138.29c-9.01,0-17.53-5.58-23.36-15.28c-1.99-3.31-0.91-7.6,2.38-9.57
					c3.31-1.98,7.58-0.91,9.57,2.38c3.26,5.42,7.4,8.54,11.41,8.54c5.16,0,9.03-4.86,10.87-7.74c2.09-3.26,6.39-4.21,9.63-2.13
					c3.25,2.07,4.19,6.39,2.12,9.63C111.06,133.25,103.04,138.29,94.28,138.29z"/>
			</g>
			<g>
				<path class="st3" d="M98.45,203c-1.53,0-3.08-0.46-4.41-1.41c-3.41-2.44-4.21-7.19-1.78-10.6
					c13.2-18.56,34.64-29.63,57.32-29.63c11.22,0,21.92,2.56,31.82,7.58c9.47,4.8,17.85,11.83,24.24,20.33
					c2.54,3.35,1.87,8.12-1.47,10.66c-3.37,2.52-8.14,1.85-10.64-1.51c-10.5-13.89-26.5-21.85-43.95-21.85
					c-17.79,0-34.58,8.68-44.94,23.24C103.16,201.88,100.81,203,98.45,203z"/>
			</g>
		</g>
		<g>
			<path class="st3" d="M80.98,137.12c-1.71,0.48-26.08,8.06-24.13,27.55c0.08,0.95,0.48,1.87,0.83,2.62c1.55,3.29,5.24,5,9.05,3.57
				C85.11,164.15,81.38,138.94,80.98,137.12z"/>
		</g>
		<g>
			<path class="st3" d="M219.37,137.12c-0.32,1.83-4.61,26.92,13.74,34.02c0.87,0.32,1.83,0.43,2.7,0.43
				c3.57,0.08,6.83-2.46,7.31-6.43C245.34,145.65,221.2,137.59,219.37,137.12z"/>
		</g>
	</g>
</g>
<g id="_x33_" class="st0">
	<g class="st1">
		<g>
			<path class="st4" d="M149.98,294.98c-40.05,0-74.29-14.18-102.6-42.48C19.05,224.27,4.9,190.09,4.9,150
				c0-40.06,14.15-74.28,42.48-102.5c28.31-28.39,62.55-42.48,102.6-42.48c40.1,0,74.32,14.09,102.62,42.48
				c28.33,28.22,42.5,62.44,42.5,102.5c0,40.09-14.18,74.27-42.5,102.5C224.3,280.8,190.08,294.98,149.98,294.98z M149.98,276.52
				c35,0,64.83-12.31,89.56-37.04c24.71-24.69,37.08-54.46,37.08-89.4s-12.37-64.79-37.08-89.52
				c-24.73-24.77-54.57-37.12-89.56-37.12c-34.97,0-64.81,12.35-89.54,37.12c-24.69,24.73-37.08,54.58-37.08,89.52
				s12.39,64.71,37.08,89.4C85.17,264.21,115.01,276.52,149.98,276.52z"/>
		</g>
		<g>
			<g>
				<path class="st4" d="M93.41,140.23c-4.88,0-9.05-1.71-12.48-5.16c-3.49-3.46-5.2-7.7-5.2-12.47c0-4.96,1.71-9.13,5.2-12.55
					c3.44-3.49,7.6-5.2,12.48-5.2c4.98,0,9.19,1.71,12.63,5.2c3.45,3.41,5.18,7.59,5.18,12.55c0,4.76-1.75,9.01-5.22,12.47
					C102.48,138.52,98.29,140.23,93.41,140.23z"/>
			</g>
			<g>
				<path class="st4" d="M206.55,140.23c-4.86,0-9.05-1.71-12.55-5.16c-3.51-3.46-5.26-7.7-5.26-12.47c0-4.96,1.75-9.13,5.26-12.55
					c3.5-3.49,7.68-5.2,12.55-5.2c4.88,0,9.05,1.71,12.5,5.2c3.48,3.41,5.18,7.59,5.18,12.55c0,4.76-1.71,9.01-5.18,12.47
					C215.6,138.52,211.43,140.23,206.55,140.23z"/>
			</g>
		</g>
		<g>
			<path class="st4" d="M149.98,222.56c-15.32,0-29.89-4.84-42.12-14.01c-12.01-8.99-20.66-21.3-25.03-35.59
				c-1.23-4.01,1.03-8.26,5.04-9.49c4.01-1.23,8.26,1.03,9.49,5.04c7.11,23.22,28.27,38.85,52.62,38.85
				c24.06,0,45.14-15.34,52.46-38.19c1.29-3.99,5.58-6.2,9.57-4.92c3.99,1.29,6.2,5.56,4.92,9.57
				c-4.52,14.05-13.2,26.16-25.13,34.99C179.63,217.8,165.17,222.56,149.98,222.56z"/>
		</g>
	</g>
</g>
<g id="_x34_">
	<g>
		<g>
			<g>
				<path class="st5" d="M149.97,294.98c-40.06,0-74.28-14.09-102.58-42.44C19.07,224.27,4.89,190.09,4.89,150
					c0-40.02,14.17-74.2,42.5-102.5C75.69,19.11,109.91,5.02,149.97,5.02c40.09,0,74.32,14.09,102.64,42.48
					c28.33,28.31,42.5,62.49,42.5,102.5c0,40.09-14.17,74.27-42.5,102.54C224.29,280.89,190.07,294.98,149.97,294.98z
					 M149.97,276.56c35.01,0,64.87-12.35,89.58-37.08c24.71-24.61,37.08-54.43,37.08-89.4c0-34.93-12.37-64.75-37.08-89.48
					s-54.57-37.12-89.58-37.12c-34.94,0-64.79,12.39-89.52,37.12c-24.71,24.73-37.06,54.55-37.06,89.48
					c0,34.98,12.35,64.79,37.06,89.4C85.18,264.21,115.04,276.56,149.97,276.56z"/>
			</g>
			<g>
				<g>
					<path class="st5" d="M121.41,152.78c-3.29,0-6.23-2.34-6.85-5.67c-2.48-13.3-9.45-22.95-16.59-22.95
						c-7.01,0-13.98,9.45-16.52,22.47c-0.75,3.77-4.41,6.23-8.2,5.52c-3.77-0.75-6.23-4.41-5.5-8.18
						c3.97-20.2,16.1-33.74,30.21-33.74c14.29,0,26.48,13.77,30.29,34.3c0.72,3.81-1.78,7.42-5.58,8.14
						C122.26,152.74,121.82,152.78,121.41,152.78z"/>
				</g>
				<g>
					<path class="st5" d="M224.13,152.78c-3.3,0-6.23-2.34-6.85-5.72c-2.46-13.26-9.45-22.91-16.61-22.91
						c-7,0-13.93,9.45-16.47,22.47c-0.74,3.77-4.41,6.23-8.18,5.52c-3.79-0.75-6.25-4.41-5.52-8.18
						c3.95-20.2,16.06-33.74,30.17-33.74c14.33,0,26.52,13.77,30.31,34.34c0.71,3.77-1.79,7.38-5.58,8.1
						C224.96,152.74,224.55,152.78,224.13,152.78z"/>
				</g>
				<g>
					<path class="st5" d="M97.29,220.23c-1.53,0-3.08-0.52-4.37-1.55c-3-2.38-3.48-6.79-1.07-9.81c7.02-8.73,7.17-16.12,0.43-22.63
						c-2.78-2.7-2.84-7.11-0.18-9.89c2.68-2.74,7.11-2.82,9.87-0.16c3.3,3.17,7.5,8.54,8.79,15.84c1.51,8.46-1.21,17.07-8.04,25.57
						C101.34,219.35,99.34,220.23,97.29,220.23z"/>
				</g>
				<g>
					<path class="st5" d="M201.1,220.23c-2.04,0-4.05-0.87-5.44-2.62c-6.83-8.5-9.55-17.11-8.04-25.57
						c1.29-7.31,5.5-12.67,8.8-15.84c2.76-2.66,7.18-2.58,9.86,0.16c2.66,2.78,2.6,7.19-0.18,9.89c-6.73,6.51-6.59,13.89,0.44,22.63
						c2.4,3.02,1.92,7.42-1.07,9.81C204.18,219.71,202.63,220.23,201.1,220.23z"/>
				</g>
			</g>
		</g>
		<g>
			<path class="st5" d="M150.15,223.4c-17.41,0-34.1-6.39-46.99-17.98c-3.11-2.82-3.37-7.62-0.57-10.76
				c2.82-3.1,7.62-3.37,10.74-0.56c10.1,9.09,23.16,14.09,36.82,14.09c12.7,0,25.11-4.44,34.93-12.5c3.24-2.7,8.02-2.22,10.7,1.03
				c2.66,3.26,2.18,8.02-1.05,10.68C182.2,217.73,166.37,223.4,150.15,223.4z"/>
		</g>
	</g>
</g>
<g id="_x35_" class="st0">
	<g class="st1">
		<g>
			<path class="st6" d="M149.96,295c-40.05,0-74.27-14.18-102.58-42.48C19.07,224.25,4.9,190.03,4.9,149.98
				c0-40.06,14.17-74.24,42.48-102.54C75.68,19.09,109.91,5,149.96,5c40.09,0,74.32,14.09,102.66,42.44
				c28.31,28.31,42.48,62.49,42.48,102.54c0,40.05-14.17,74.27-42.48,102.54C224.27,280.82,190.05,295,149.96,295z M149.96,276.5
				c35.01,0,64.87-12.27,89.6-37.04c24.69-24.65,37.04-54.38,37.04-89.36s-12.35-64.83-37.04-89.52
				c-24.73-24.77-54.59-37.12-89.6-37.12c-34.94,0-64.79,12.35-89.52,37.12C35.71,85.27,23.4,115.12,23.4,150.1
				s12.31,64.71,37.04,89.36C85.17,264.23,115.02,276.5,149.96,276.5z"/>
		</g>
		<g>
			<path class="st6" d="M149.96,214.43c-13.4,0-26.12-4.23-36.78-12.23c-10.48-7.84-18.04-18.6-21.89-31.1
				c-1.23-4.01,1.01-8.26,5.02-9.49c4.03-1.23,8.28,1.01,9.51,5.02c5.99,19.49,23.74,32.59,44.14,32.59
				c20.21,0,37.88-12.88,43.97-32.06c1.27-4.01,5.56-6.21,9.54-4.94c4.01,1.27,6.21,5.54,4.94,9.55
				c-3.91,12.31-11.49,22.91-21.94,30.63C175.86,210.26,163.24,214.43,149.96,214.43z"/>
		</g>
		<g>
			<path class="st6" d="M119.83,108.41c0.2,2.54-0.36,5.32-1.71,8.18c-1.35,2.9-3.22,5.76-5.67,8.81c-2.42,2.98-5.32,5.96-8.5,9.05
				c-3.22,3.02-6.55,6.04-10.04,8.97c-3.49-2.94-6.83-5.95-10.08-8.97c-3.22-3.09-6.04-6.07-8.5-9.05
				c-2.42-3.06-4.33-5.91-5.68-8.81c-1.35-2.86-1.9-5.64-1.67-8.18c0.2-2.78,1.15-4.96,2.78-6.71c1.59-1.87,3.53-3.1,5.76-3.93
				c2.22-0.83,4.48-1.07,6.83-0.91c2.42,0.12,4.41,0.83,6.11,1.99c1.55,0.95,3.02,2.58,4.45,5c1.39-2.42,2.86-4.05,4.41-5
				c1.71-1.15,3.73-1.87,6.11-1.99c2.34-0.16,4.65,0.08,6.83,0.91c2.22,0.83,4.13,2.07,5.76,3.93
				C118.6,103.45,119.59,105.64,119.83,108.41z"/>
		</g>
		<g>
			<path class="st6" d="M231.5,108.41c0.2,2.54-0.32,5.32-1.71,8.18c-1.35,2.9-3.26,5.76-5.68,8.81c-2.42,2.98-5.28,5.96-8.5,9.05
				c-3.17,3.02-6.55,6.04-10.04,8.97c-3.53-2.94-6.87-5.95-10.09-8.97c-3.17-3.09-6.03-6.07-8.46-9.05
				c-2.46-3.06-4.33-5.91-5.72-8.81c-1.31-2.86-1.91-5.64-1.67-8.18c0.2-2.78,1.15-4.96,2.78-6.71c1.67-1.87,3.54-3.1,5.76-3.93
				c2.22-0.83,4.49-1.07,6.87-0.91c2.38,0.12,4.37,0.83,6.07,1.99c1.55,0.95,3.06,2.58,4.45,5c1.39-2.42,2.86-4.05,4.41-5
				c1.74-1.15,3.73-1.87,6.11-1.99c2.34-0.16,4.64,0.08,6.87,0.91c2.18,0.83,4.09,2.07,5.72,3.93
				C230.31,103.45,231.26,105.64,231.5,108.41z"/>
		</g>
	</g>
</g>
</svg>
