<?xml version="1.0" encoding="utf-8"?>
<!-- Generator: Adobe Illustrator 25.4.1, SVG Export Plug-In . SVG Version: 6.00 Build 0)  -->
<svg version="1.1" id="レイヤー_1" xmlns="http://www.w3.org/2000/svg" xmlns:xlink="http://www.w3.org/1999/xlink" x="0px"
	 y="0px" viewBox="0 0 212 213" style="enable-background:new 0 0 212 213;" xml:space="preserve">
<style type="text/css">
	.st0{fill:#CFCFCF;}
	.st1{fill:#545454;stroke:#545454;stroke-width:1.0095;stroke-miterlimit:10;}
</style>
<g>
	<path class="st0" d="M179.9,212.5H32.1C14.37,212.5,0,198.13,0,180.4V32.6C0,14.87,14.37,0.5,32.1,0.5H179.9
		c17.73,0,32.1,14.37,32.1,32.1V180.4C212,198.13,197.63,212.5,179.9,212.5z"/>
	<g>
		<path class="st1" d="M148.15,137.77c1.49,1.49,2.83,3.72,2.83,5.66c0,4.02-4.47,8.19-8.04,8.19c-2.23,0-4.91-2.08-5.66-2.83
			L106,117.37l-31.27,31.42c-1.34,1.34-3.72,2.83-5.66,2.83c-4.02,0-8.19-4.77-8.19-8.19c0-2.08,2.38-5.06,2.98-5.66l31.27-31.27
			L63.86,75.23c-1.34-1.34-2.83-3.72-2.83-5.51c0-4.17,4.62-8.34,8.04-8.34c2.08,0,5.06,2.38,5.66,2.98L106,95.63l31.27-31.27
			c1.49-1.49,3.57-2.83,5.51-2.83c4.17,0,8.34,4.47,8.34,8.19c0,2.08-2.08,4.62-2.98,5.51l-31.27,31.27L148.15,137.77z"/>
	</g>
</g>
</svg>
