<?xml version="1.0" encoding="UTF-8"?>
<!DOCTYPE svg PUBLIC "-//W3C//DTD SVG 1.1//EN" "http://www.w3.org/Graphics/SVG/1.1/DTD/svg11.dtd">
<svg xmlns="http://www.w3.org/2000/svg" version="1.1" width="100px" height="100px" style="shape-rendering:geometricPrecision; text-rendering:geometricPrecision; image-rendering:optimizeQuality; fill-rule:evenodd; clip-rule:evenodd" xmlns:xlink="http://www.w3.org/1999/xlink">
<g><path style="opacity:0.782" fill="#000000" d="M 39.5,3.5 C 67.9223,0.452161 86.4223,12.4522 95,39.5C 98.5361,67.9428 86.7027,86.4428 59.5,95C 31.0572,98.5361 12.5572,86.7027 4,59.5C 0.672469,31.0314 12.5058,12.3647 39.5,3.5 Z"/></g>
<g><path style="opacity:1" fill="#fefefe" d="M 40.5,8.5 C 65.6754,5.99187 82.1754,16.6585 90,40.5C 92.994,65.6944 82.494,82.1944 58.5,90C 33.3056,92.994 16.8056,82.494 9,58.5C 6.127,33.2191 16.627,16.5524 40.5,8.5 Z"/></g>
<g><path style="opacity:1" fill="#000000" d="M 33.5,25.5 C 34.8734,25.3433 36.2068,25.51 37.5,26C 49.9957,32.7469 62.3291,39.7469 74.5,47C 75.8333,48.6667 75.8333,50.3333 74.5,52C 61.5,59.5 48.5,67 35.5,74.5C 34.914,74.2907 34.414,73.9574 34,73.5C 33.5001,57.5035 33.3334,41.5035 33.5,25.5 Z"/></g>
</svg>
