<?xml version="1.0" encoding="UTF-8"?>
<!DOCTYPE svg PUBLIC "-//W3C//DTD SVG 1.1//EN" "http://www.w3.org/Graphics/SVG/1.1/DTD/svg11.dtd">
<svg xmlns="http://www.w3.org/2000/svg" version="1.1" width="50px" height="50px" style="shape-rendering:geometricPrecision; text-rendering:geometricPrecision; image-rendering:optimizeQuality; fill-rule:evenodd; clip-rule:evenodd" xmlns:xlink="http://www.w3.org/1999/xlink">
<g><path style="opacity:0.631" fill="#000000" d="M 17.5,1.5 C 41.1541,0.318958 50.6541,11.319 46,34.5C 38.7573,46.8068 28.2573,50.6402 14.5,46C 2.19317,38.7573 -1.64016,28.2573 3,14.5C 6.16246,8.16411 10.9958,3.83077 17.5,1.5 Z"/></g>
<g><path style="opacity:1" fill="#fefffe" d="M 18.5,4.5 C 33.9287,2.61266 42.5953,9.27933 44.5,24.5C 42.085,41.7175 32.4183,47.8842 15.5,43C 4.9871,36.4639 1.82043,27.2972 6,15.5C 9.1476,10.5094 13.3143,6.84275 18.5,4.5 Z"/></g>
<g><path style="opacity:1" fill="#000000" d="M 15.5,15.5 C 21.5,15.5 27.5,15.5 33.5,15.5C 33.5,21.5 33.5,27.5 33.5,33.5C 27.5,33.5 21.5,33.5 15.5,33.5C 15.5,27.5 15.5,21.5 15.5,15.5 Z"/></g>
</svg>
