<?xml version="1.0" encoding="UTF-8"?>
<!DOCTYPE svg PUBLIC "-//W3C//DTD SVG 1.1//EN" "http://www.w3.org/Graphics/SVG/1.1/DTD/svg11.dtd">
<svg xmlns="http://www.w3.org/2000/svg" version="1.1" width="4096px" height="4096px" style="shape-rendering:geometricPrecision; text-rendering:geometricPrecision; image-rendering:optimizeQuality; fill-rule:evenodd; clip-rule:evenodd" xmlns:xlink="http://www.w3.org/1999/xlink">
<g><path style="opacity:0.997" fill="#202020" d="M 2026.5,400.5 C 2114.58,395.633 2184.75,428.3 2237,498.5C 2244.43,509.678 2251.09,521.345 2257,533.5C 2389.84,804.021 2523.34,1074.19 2657.5,1344C 2963.24,1388.2 3268.91,1432.87 3574.5,1478C 3647.68,1495.86 3700.52,1538.69 3733,1606.5C 3763.27,1676.95 3760.93,1746.28 3726,1814.5C 3717.65,1828.53 3708.32,1841.87 3698,1854.5C 3642.28,1910.23 3585.94,1965.23 3529,2019.5C 3447.11,1973.2 3360.61,1938.03 3269.5,1914C 3334.86,1849.64 3400.53,1785.64 3466.5,1722C 3178.92,1679.54 2891.25,1637.54 2603.5,1596C 2531.69,1582.88 2476.86,1545.38 2439,1483.5C 2308.59,1219.01 2177.92,954.679 2047,690.5C 1916.67,954.5 1786.33,1218.5 1656,1482.5C 1619.59,1543.48 1566.43,1580.98 1496.5,1595C 1207.09,1637.06 917.755,1679.39 628.5,1722C 838,1926.17 1047.5,2130.33 1257,2334.5C 1307.94,2390.87 1327.94,2456.87 1317,2532.5C 1268.27,2817.19 1219.44,3101.85 1170.5,3386.5C 1170.83,3387.5 1171.17,3388.5 1171.5,3389.5C 1406.34,3265.58 1641.34,3141.91 1876.5,3018.5C 1880.48,3109.22 1894.48,3198.38 1918.5,3286C 1918.36,3286.77 1918.02,3287.44 1917.5,3288C 1687.5,3408.67 1457.5,3529.33 1227.5,3650C 1137.72,3684.94 1055.72,3671.94 981.5,3611C 922.908,3556.6 897.741,3489.43 906,3409.5C 957.462,3107.56 1009.3,2805.73 1061.5,2504C 850.026,2297.44 638.359,2091.1 426.5,1885C 351.08,1818.07 325.58,1735.57 350,1637.5C 371.358,1568.28 415.191,1519.11 481.5,1490C 501.122,1482.02 521.455,1476.68 542.5,1474C 840.847,1430.76 1139.18,1387.43 1437.5,1344C 1570.73,1075.03 1703.57,805.867 1836,536.5C 1874.86,456.826 1938.36,411.493 2026.5,400.5 Z"/></g>
<g><path style="opacity:0.998" fill="#202020" d="M 2943.5,2047.5 C 3202.6,2039.9 3428.27,2121.73 3620.5,2293C 3805.55,2466.63 3906.71,2680.8 3924,2935.5C 3934.01,3162.09 3872.34,3366.42 3739,3548.5C 3583.78,3750.77 3379.62,3872.94 3126.5,3915C 2883.99,3948.31 2660.99,3897.64 2457.5,3763C 2258.24,3623.84 2129.41,3435.68 2071,3198.5C 2020.42,2967.53 2050.09,2747.53 2160,2538.5C 2278.76,2326.1 2452.93,2178.93 2682.5,2097C 2767.36,2068.46 2854.36,2051.96 2943.5,2047.5 Z M 2975.5,2389.5 C 3018.64,2387.47 3048.8,2406.14 3066,2445.5C 3067.65,2450.75 3068.98,2456.09 3070,2461.5C 3071.48,2608.15 3071.98,2754.82 3071.5,2901.5C 3219.19,2901.01 3366.86,2901.51 3514.5,2903C 3556.78,2914.78 3579.44,2942.62 3582.5,2986.5C 3579.05,3032.12 3555.05,3059.95 3510.5,3070C 3364.18,3071.48 3217.85,3071.98 3071.5,3071.5C 3071.99,3218.52 3071.49,3365.52 3070,3512.5C 3059.45,3556.55 3031.62,3580.22 2986.5,3583.5C 2950.03,3581.53 2923.86,3564.19 2908,3531.5C 2905.93,3525.95 2904.26,3520.29 2903,3514.5C 2901.51,3366.86 2901.01,3219.19 2901.5,3071.5C 2754.48,3071.98 2607.48,3071.48 2460.5,3070C 2415.95,3059.95 2391.95,3032.12 2388.5,2986.5C 2391.56,2942.62 2414.22,2914.78 2456.5,2903C 2604.81,2901.51 2753.14,2901.01 2901.5,2901.5C 2901.33,2755.5 2901.5,2609.5 2902,2463.5C 2910.02,2422.32 2934.52,2397.65 2975.5,2389.5 Z"/></g>
</svg>
