<?xml version="1.0" encoding="UTF-8"?>
<!DOCTYPE svg PUBLIC "-//W3C//DTD SVG 1.1//EN" "http://www.w3.org/Graphics/SVG/1.1/DTD/svg11.dtd">
<svg xmlns="http://www.w3.org/2000/svg" version="1.1" width="183px" height="181px" style="shape-rendering:geometricPrecision; text-rendering:geometricPrecision; image-rendering:optimizeQuality; fill-rule:evenodd; clip-rule:evenodd" xmlns:xlink="http://www.w3.org/1999/xlink">
<g><path style="opacity:1" fill="#121212" d="M 88.5,108.5 C 89.2039,110.344 90.5372,110.844 92.5,110C 112.753,90.2486 132.42,70.0819 151.5,49.5C 153.5,49.5 154.5,48.5 154.5,46.5C 158.775,43.5841 162.608,44.2508 166,48.5C 166.996,52.2072 166.33,55.5405 164,58.5C 141.167,80.4994 118.667,102.833 96.5,125.5C 93.5069,128.585 90.1736,129.085 86.5,127C 67.25,107.917 48.25,88.7508 29.5,69.5C 28.7377,67.7376 27.4044,66.7376 25.5,66.5C 25.5,66.1667 25.5,65.8333 25.5,65.5C 24.7377,63.7376 23.4044,62.7376 21.5,62.5C 21.5,62.1667 21.5,61.8333 21.5,61.5C 20.4154,59.4131 18.7488,58.0798 16.5,57.5C 12.7814,51.3716 14.2814,47.0382 21,44.5C 23.245,45.1371 25.4117,45.9704 27.5,47C 48.035,67.3681 68.3683,87.8681 88.5,108.5 Z"/></g>
<g><path style="opacity:0.776" fill="#7c7c7c" d="M 154.5,46.5 C 154.5,48.5 153.5,49.5 151.5,49.5C 152.167,48.1667 153.167,47.1667 154.5,46.5 Z"/></g>
<g><path style="opacity:0.678" fill="#989898" d="M 16.5,57.5 C 18.7488,58.0798 20.4154,59.4131 21.5,61.5C 19.2512,60.9202 17.5846,59.5869 16.5,57.5 Z"/></g>
<g><path style="opacity:0.678" fill="#969696" d="M 21.5,62.5 C 23.4044,62.7376 24.7377,63.7376 25.5,65.5C 23.5956,65.2624 22.2623,64.2624 21.5,62.5 Z"/></g>
<g><path style="opacity:0.678" fill="#969696" d="M 25.5,66.5 C 27.4044,66.7376 28.7377,67.7376 29.5,69.5C 27.5956,69.2624 26.2623,68.2624 25.5,66.5 Z"/></g>
<g><path style="opacity:0.737" fill="#7a7a7a" d="M 151.5,49.5 C 132.42,70.0819 112.753,90.2486 92.5,110C 90.5372,110.844 89.2039,110.344 88.5,108.5C 89.4232,109.303 90.4232,109.47 91.5,109C 111.368,88.965 131.368,69.1317 151.5,49.5 Z"/></g>
</svg>
