<?xml version="1.0" encoding="UTF-8"?>
<!DOCTYPE svg PUBLIC "-//W3C//DTD SVG 1.1//EN" "http://www.w3.org/Graphics/SVG/1.1/DTD/svg11.dtd">
<svg xmlns="http://www.w3.org/2000/svg" version="1.1" width="184px" height="186px" style="shape-rendering:geometricPrecision; text-rendering:geometricPrecision; image-rendering:optimizeQuality; fill-rule:evenodd; clip-rule:evenodd" xmlns:xlink="http://www.w3.org/1999/xlink">
<g><path style="opacity:0.075" fill="#fefffe" d="M -0.5,2.5 C 0.833333,4.16667 0.833333,5.83333 -0.5,7.5C -0.5,5.83333 -0.5,4.16667 -0.5,2.5 Z"/></g>
<g><path style="opacity:0.994" fill="#85a0ca" d="M 47.5,78.5 C 47.427,80.0269 48.0937,81.0269 49.5,81.5C 54.0332,87.3763 54.5332,93.7097 51,100.5C 41.2903,111.709 31.2903,112.043 21,101.5C 14.9878,86.524 19.8211,77.1907 35.5,73.5C 40.0574,74.0138 44.0574,75.6805 47.5,78.5 Z M 33.5,80.5 C 43.3638,80.8573 47.5305,85.8573 46,95.5C 42.2303,102.414 36.7303,104.247 29.5,101C 21.9483,92.481 23.2816,85.6477 33.5,80.5 Z"/></g>
<g><path style="opacity:0.994" fill="#859fc9" d="M 90.5,73.5 C 101.697,74.3632 108.03,80.3632 109.5,91.5C 108.167,102.167 102.167,108.167 91.5,109.5C 80.8333,108.167 74.8333,102.167 73.5,91.5C 74.8044,81.1994 80.4711,75.1994 90.5,73.5 Z M 88.5,81.5 C 100.655,81.7936 104.489,87.4602 100,98.5C 92.5892,104.432 86.2559,103.432 81,95.5C 80.1267,88.9076 82.6267,84.2409 88.5,81.5 Z"/></g>
<g><path style="opacity:0.994" fill="#859fc9" d="M 146.5,73.5 C 162.882,76.5953 168.048,85.9286 162,101.5C 151.71,112.043 141.71,111.709 132,100.5C 126.98,85.9972 131.813,76.9972 146.5,73.5 Z M 145.5,80.5 C 154.139,81.3005 158.306,85.9671 158,94.5C 154.27,102.802 148.436,104.635 140.5,100C 133.976,91.3111 135.642,84.8111 145.5,80.5 Z"/></g>
<g><path style="opacity:0.102" fill="#bfe0f9" d="M 32.5,78.5 C 46.586,79.3387 51.086,86.3387 46,99.5C 36.2684,107.267 28.6018,105.601 23,94.5C 22.2535,86.7649 25.4201,81.4316 32.5,78.5 Z M 33.5,80.5 C 23.2816,85.6477 21.9483,92.481 29.5,101C 36.7303,104.247 42.2303,102.414 46,95.5C 47.5305,85.8573 43.3638,80.8573 33.5,80.5 Z"/></g>
<g><path style="opacity:0.749" fill="#becce2" d="M 47.5,78.5 C 48.9063,78.9731 49.573,79.9731 49.5,81.5C 48.0937,81.0269 47.427,80.0269 47.5,78.5 Z"/></g>
<g><path style="opacity:0.22" fill="#bfe1fa" d="M 87.5,78.5 C 100.759,78.3825 105.926,84.7159 103,97.5C 95.2982,106.746 87.6316,106.746 80,97.5C 76.9672,88.9086 79.4672,82.5752 87.5,78.5 Z M 88.5,81.5 C 82.6267,84.2409 80.1267,88.9076 81,95.5C 86.2559,103.432 92.5892,104.432 100,98.5C 104.489,87.4602 100.655,81.7936 88.5,81.5 Z"/></g>
<g><path style="opacity:0.116" fill="#bee0f9" d="M 143.5,78.5 C 155.155,77.7117 160.655,83.045 160,94.5C 155.83,104.113 148.997,106.613 139.5,102C 131.872,92.55 133.206,84.7167 143.5,78.5 Z M 145.5,80.5 C 135.642,84.8111 133.976,91.3111 140.5,100C 148.436,104.635 154.27,102.802 158,94.5C 158.306,85.9671 154.139,81.3005 145.5,80.5 Z"/></g>
<g><path style="opacity:0.007" fill="#f6f6f6" d="M -0.5,181.5 C 1.10422,182.287 1.77089,183.62 1.5,185.5C 0.833333,185.5 0.166667,185.5 -0.5,185.5C -0.5,184.167 -0.5,182.833 -0.5,181.5 Z"/></g>
<g><path style="opacity:0.024" fill="#f7f7f7" d="M 183.5,180.5 C 183.5,182.167 183.5,183.833 183.5,185.5C 182.833,185.5 182.167,185.5 181.5,185.5C 181.402,183.447 182.069,181.78 183.5,180.5 Z"/></g>
</svg>
