<?xml version="1.0" encoding="UTF-8"?>
<!DOCTYPE svg PUBLIC "-//W3C//DTD SVG 1.1//EN" "http://www.w3.org/Graphics/SVG/1.1/DTD/svg11.dtd">
<svg xmlns="http://www.w3.org/2000/svg" version="1.1" width="190px" height="184px" style="shape-rendering:geometricPrecision; text-rendering:geometricPrecision; image-rendering:optimizeQuality; fill-rule:evenodd; clip-rule:evenodd" xmlns:xlink="http://www.w3.org/1999/xlink">
<g><path style="opacity:1" fill="#0d0d0d" d="M 62.5,19.5 C 62.5,24.5 62.5,29.5 62.5,34.5C 81.8333,34.5 101.167,34.5 120.5,34.5C 120.5,29.5 120.5,24.5 120.5,19.5C 125.167,19.5 129.833,19.5 134.5,19.5C 134.5,24.1667 134.5,28.8333 134.5,33.5C 145.075,31.6982 152.242,35.6982 156,45.5C 156.667,80.8333 156.667,116.167 156,151.5C 154.91,157.588 151.41,161.421 145.5,163C 109.5,163.667 73.5,163.667 37.5,163C 32,161.5 28.5,158 27,152.5C 26.3333,116.833 26.3333,81.1667 27,45.5C 30.7583,35.6982 37.9249,31.6982 48.5,33.5C 48.5,28.8333 48.5,24.1667 48.5,19.5C 53.1667,19.5 57.8333,19.5 62.5,19.5 Z M 41.5,48.5 C 74.8333,48.5 108.167,48.5 141.5,48.5C 141.5,53.1667 141.5,57.8333 141.5,62.5C 108.167,62.5 74.8333,62.5 41.5,62.5C 41.5,57.8333 41.5,53.1667 41.5,48.5 Z M 41.5,77.5 C 74.8333,77.5 108.167,77.5 141.5,77.5C 141.5,101.167 141.5,124.833 141.5,148.5C 108.167,148.5 74.8333,148.5 41.5,148.5C 41.5,124.833 41.5,101.167 41.5,77.5 Z"/></g>
<g><path style="opacity:0.215" fill="#bdbdbd" d="M 62.5,19.5 C 63.4861,23.97 63.8195,28.6367 63.5,33.5C 82.1667,33.5 100.833,33.5 119.5,33.5C 119.181,28.6367 119.514,23.97 120.5,19.5C 120.5,24.5 120.5,29.5 120.5,34.5C 101.167,34.5 81.8333,34.5 62.5,34.5C 62.5,29.5 62.5,24.5 62.5,19.5 Z"/></g>
<g><path style="opacity:1" fill="#121212" d="M 110.5,86.5 C 114.402,88.8926 117.902,91.8926 121,95.5C 121.667,96.1667 121.667,96.8333 121,97.5C 110,108.5 99,119.5 88,130.5C 80.1667,122.667 72.3333,114.833 64.5,107C 68,103.5 71.5,100 75,96.5C 79.3333,100.833 83.6667,105.167 88,109.5C 95.7025,101.965 103.202,94.2983 110.5,86.5 Z"/></g>
</svg>
