<?xml version="1.0" encoding="utf-8"?>
<!-- Generator: Adobe Illustrator 26.0.3, SVG Export Plug-In . SVG Version: 6.00 Build 0)  -->
<svg version="1.1" id="レイヤー_1" xmlns="http://www.w3.org/2000/svg" xmlns:xlink="http://www.w3.org/1999/xlink" x="0px"
	 y="0px" viewBox="0 0 212 213" style="enable-background:new 0 0 212 213;" xml:space="preserve">
<style type="text/css">
	.st0{fill:#CFCFCF;}
	.st1{fill:#545454;stroke:#545454;stroke-width:1.0095;stroke-miterlimit:10;}
</style>
<path class="st0" d="M106,212.5L106,212.5c-58.54,0-106-47.46-106-106v0c0-58.54,47.46-106,106-106h0c58.54,0,106,47.46,106,106v0
	C212,165.04,164.54,212.5,106,212.5z"/>
<g>
	<path class="st1" d="M157.91,98.81c2.11,0,4.63,0.63,6,2c2.84,2.84,2.63,8.95,0.11,11.48c-1.58,1.58-4.95,2-6,2l-44.33-0.11
		l0.11,44.33c0,1.9-0.63,4.63-2,6c-2.84,2.84-9.16,2.42-11.58,0c-1.47-1.47-1.9-5.27-1.9-6.11v-44.23H54.09
		c-1.9,0-4.63-0.63-5.9-1.9c-2.95-2.95-2.63-9.16-0.21-11.58c1.47-1.47,5.27-1.9,6.11-1.9h44.23V54.59c0-2.11,0.53-4.53,1.9-5.9
		c2.95-2.95,9.06-2.74,11.69-0.11c1.47,1.47,1.79,4.74,1.79,6v44.23H157.91z"/>
</g>
</svg>
