<?xml version="1.0" encoding="utf-8"?>
<!-- Generator: Adobe Illustrator 26.0.2, SVG Export Plug-In . SVG Version: 6.00 Build 0)  -->
<svg version="1.1" xmlns="http://www.w3.org/2000/svg" xmlns:xlink="http://www.w3.org/1999/xlink" x="0px" y="0px"
	 viewBox="0 0 400 400" style="enable-background:new 0 0 400 400;" xml:space="preserve">
<style type="text/css">
	.st0{fill:#FFFFFF;}
	.st1{fill:#DB4F51;}
	.st2{font-family:'UDShinGoNTPro-Medium-90ms-RKSJ-H';}
	.st3{font-size:286.3701px;}
	.st4{display:none;}
	.st5{display:inline;}
	.st6{fill:#258F7E;}
	.st7{display:inline;fill:#258F7E;}
	.st8{font-family:'UDShinGoNTPro-DeBold-90ms-RKSJ-H';}
	.st9{fill:#6A6A6A;}
	.st10{display:inline;fill:#6A6A6A;}
	.st11{fill:#EA5514;}
	.st12{display:inline;fill:#EA5514;}
</style>
<g id="レイヤー_1">
	<g>
		<circle class="st0" cx="200" cy="200" r="190"/>
		<path class="st1" d="M200,20c48.1,0,93.3,18.7,127.3,52.7S380,151.9,380,200s-18.7,93.3-52.7,127.3S248.1,380,200,380
			s-93.3-18.7-127.3-52.7S20,248.1,20,200s18.7-93.3,52.7-127.3S151.9,20,200,20 M200,0C89.5,0,0,89.5,0,200s89.5,200,200,200
			s200-89.5,200-200S310.5,0,200,0L200,0z"/>
	</g>
	<text transform="matrix(1 0 0 1 57.6299 319.5295)" class="st1 st2 st3">否</text>
</g>
<g id="レイヤー_2" class="st4">
	<g class="st5">
		<path class="st6" d="M200,20c48.1,0,93.3,18.7,127.3,52.7S380,151.9,380,200s-18.7,93.3-52.7,127.3S248.1,380,200,380
			s-93.3-18.7-127.3-52.7S20,248.1,20,200s18.7-93.3,52.7-127.3S151.9,20,200,20 M200,0C89.5,0,0,89.5,0,200s89.5,200,200,200
			s200-89.5,200-200S310.5,0,200,0L200,0z"/>
	</g>
	<text transform="matrix(1 0 0 1 57.6299 312.5287)" class="st7 st2 st3">済</text>
</g>
<g id="レイヤー_2のコピー" class="st4">
	<g class="st5">
		<path d="M200,20c48.1,0,93.3,18.7,127.3,52.7S380,151.9,380,200s-18.7,93.3-52.7,127.3S248.1,380,200,380s-93.3-18.7-127.3-52.7
			S20,248.1,20,200s18.7-93.3,52.7-127.3S151.9,20,200,20 M200,0C89.5,0,0,89.5,0,200s89.5,200,200,200s200-89.5,200-200
			S310.5,0,200,0L200,0z"/>
	</g>
	<text transform="matrix(1 0 0 1 57.6299 312.5287)" class="st5 st8 st3">未</text>
</g>
<g id="レイヤー_2のコピー_2" class="st4">
	<g class="st5">
		<path class="st9" d="M200,20c48.1,0,93.3,18.7,127.3,52.7S380,151.9,380,200s-18.7,93.3-52.7,127.3S248.1,380,200,380
			s-93.3-18.7-127.3-52.7S20,248.1,20,200s18.7-93.3,52.7-127.3S151.9,20,200,20 M200,0C89.5,0,0,89.5,0,200s89.5,200,200,200
			s200-89.5,200-200S310.5,0,200,0L200,0z"/>
	</g>
	<text transform="matrix(1 0 0 1 57.6299 312.5287)" class="st10 st8 st3">戻</text>
</g>
<g id="レイヤー_2のコピー_3" class="st4">
	<g class="st5">
		<path class="st11" d="M200,20c48.1,0,93.3,18.7,127.3,52.7S380,151.9,380,200s-18.7,93.3-52.7,127.3S248.1,380,200,380
			s-93.3-18.7-127.3-52.7S20,248.1,20,200s18.7-93.3,52.7-127.3S151.9,20,200,20 M200,0C89.5,0,0,89.5,0,200s89.5,200,200,200
			s200-89.5,200-200S310.5,0,200,0L200,0z"/>
	</g>
	<text transform="matrix(1 0 0 1 57.6299 312.5287)" class="st12 st8 st3">取</text>
</g>
</svg>
