<?xml version="1.0" encoding="utf-8"?>
<!-- Generator: Adobe Illustrator 26.0.2, SVG Export Plug-In . SVG Version: 6.00 Build 0)  -->
<svg version="1.1" xmlns="http://www.w3.org/2000/svg" xmlns:xlink="http://www.w3.org/1999/xlink" x="0px" y="0px"
	 viewBox="0 0 400 400" style="enable-background:new 0 0 400 400;" xml:space="preserve">
<style type="text/css">
	.st0{display:none;}
	.st1{display:inline;fill:#6A6A6A;}
	.st2{display:inline;}
	.st3{fill-rule:evenodd;clip-rule:evenodd;fill:#6A6A6A;}
	.st4{fill:#6A6A6A;}
	.st5{fill:#E47B7C;}
</style>
<g id="レイヤー_1" class="st0">
	<path class="st1" d="M324.3,94.4c-2.8-3.1-5.7-6.2-8.7-9.2l0,0l0,0l0,0c-3-3-6.1-5.9-9.2-8.7C239,16.2,143.8,3.9,65,39.6
		c-5.6,2.5-7.2,10-3,14.4c0.1,0.1,0.2,0.2,0.3,0.3c0.7,0.6,1.3,1.3,1.9,1.9c26.5,26.5,37.6,62.6,33.4,97.1c-0.1,1.1-0.2,2.1-0.4,3.2
		c-0.4,2.8,0.6,5.5,2.5,7.4l0.1,0.1c1.5,1.5,3.6,2.5,5.9,2.6c0.4,0,0.7,0.1,1.1,0.1c26.7,1.9,52.9,11.7,75,29.1l-157,157
		c-6.5,6.5-6.5,17,0,23.4l0,0c6.5,6.5,17,6.5,23.4,0l157-157c17.4,22.1,27.1,48.3,29.1,75c0,0.4,0.1,0.7,0.1,1.1
		c0.1,2.3,1.1,4.4,2.7,5.9l0,0c1.9,1.9,4.6,2.9,7.4,2.5c1.1-0.2,2.1-0.3,3.2-0.4c34.5-4.2,70.6,6.9,97.1,33.4
		c0.6,0.6,1.3,1.3,1.9,1.9c0.1,0.1,0.1,0.1,0.2,0.2c4.4,4.4,11.8,3.1,14.4-2.5C397,257.3,384.7,161.9,324.3,94.4z M308.3,124.9
		c-3.9,57.5-27.7,104.8-47.7,135.1c-7.7-28.5-22.7-54.7-43.8-75.8c-21.2-21.2-47.4-36.2-75.9-43.8c30.2-20,77.5-43.9,135.1-47.7
		c10.4-0.7,21.2-0.7,32.2,0C309,103.7,309,114.4,308.3,124.9z"/>
</g>
<g id="レイヤー_5" class="st0">
	<path class="st1" d="M200.5,27.6l-188.1,163l27.7,32l28-24.2v168.6h81.9v-116c0-18.6,15.1-33.8,33.8-33.8h33.6
		c18.6,0,33.8,15.1,33.8,33.8v116h81.9V198.4l28,24.2l27.7-32L200.5,27.6z"/>
</g>
<g id="レイヤー_4" class="st0">
	<g class="st2">
		<path class="st3" d="M42.5,28h229.6c4.6,0,8.4,3.8,8.4,8.4v100.5h-25.7V53.6H115.1l62.4,19.8c5.1,1.6,9.2,7.5,9.2,13V319h68.1
			v-66.3h25.7v83.5c0,4.6-3.8,8.4-8.4,8.4h-85.3v26.3c0,10.3-7.6,16.3-17,13.3L44.9,344.7h-2.4c-2.4,0-4.7-1.1-6.2-2.7l-2.2-0.7v-5
			V36.4v0l0-0.2h0l0-0.2l0,0c0-0.7,0.2-1.4,0.4-2C35.5,30.5,38.7,28,42.5,28"/>
		<polygon class="st3" points="211.9,159.5 291.7,159.5 291.7,120.9 381.7,194.6 291.7,268.3 291.7,230.1 211.9,230.1 		"/>
	</g>
</g>
<g id="レイヤー_2" class="st0">
	<g class="st2">
		<path class="st4" d="M361,103.4H223.4c-6.8-6-15.7-9.6-25.4-9.6c-21.2,0-38.4,17.2-38.4,38.4c0,21.2,17.2,38.4,38.4,38.4
			c9.7,0,18.6-3.6,25.4-9.6H361c15.9,0,28.8-12.9,28.8-28.8C389.8,116.3,376.9,103.4,361,103.4z"/>
		<path class="st4" d="M198,183c-28.1,0-50.8-22.7-50.8-50.8c0-28.1,22.7-50.8,50.8-50.8c10.3,0,19.9,3.1,27.9,8.3h54.5
			c-5.1-41-40-72.7-82.4-72.7c-45.8,0-83,37.2-83,83l0,203.3c0,45.8,37.2,83,83,83s83-37.2,83-83V174.7h-55.1
			C217.9,179.9,208.3,183,198,183z M215.4,286v31.3c0,9.6-7.8,17.4-17.4,17.4c-9.6,0-17.4-7.8-17.4-17.4V286c-6.1-5-10-12.7-10-21.2
			c0-15.1,12.3-27.4,27.4-27.4c15.1,0,27.4,12.3,27.4,27.4C225.4,273.3,221.5,280.9,215.4,286z"/>
	</g>
</g>
<g id="レイヤー_3" class="st0">
	<g class="st2">
		
			<ellipse transform="matrix(0.7071 -0.7071 0.7071 0.7071 1.7518 165.4754)" class="st4" cx="200.6" cy="80.6" rx="66.3" ry="66.3"/>
		<path class="st4" d="M370,350.5h-44v-83.4c0-56.7-56.1-102.7-125.4-102.7c-69.2,0-125.4,46-125.4,102.7v83.4H30
			c-6.2,0-11.3,5.1-11.3,11.3c0,6.2,5.1,11.3,11.3,11.3H370c6.2,0,11.3-5.1,11.3-11.3C381.2,355.5,376.2,350.5,370,350.5z
			 M286.3,256.5l-7,78.4c-0.7,7.5-7.4,13.7-15,13.7h-129c-7.6,0-14.3-6.2-15-13.7l-7-78.4c-0.7-7.5,5-13.7,12.5-13.7h148
			C281.3,242.8,286.9,248.9,286.3,256.5z"/>
		<circle class="st4" cx="199.7" cy="297.8" r="12.4"/>
	</g>
</g>
<g id="レイヤー_6">
	<rect x="40.3" y="315.4" class="st4" width="320.5" height="53"/>
	<path class="st4" d="M200.5,23.2c-78.1,0-141.3,63.3-141.3,141.3v132.7h282.7V164.5C341.9,86.5,278.6,23.2,200.5,23.2z M318.9,275
		c0,0,0,0-53.2,0S341.9,45.5,159.1,53c0,0,26.8-7.4,41.4-7.4c65.3,0,118.3,53,118.3,118.3V275z"/>
</g>
<g id="レイヤー_6のコピー">
	<rect x="40.3" y="315.4" class="st4" width="320.5" height="53"/>
	<path class="st5" d="M200.5,23.2c-78.1,0-141.3,63.3-141.3,141.3v132.7h282.7V164.5C341.9,86.5,278.6,23.2,200.5,23.2z M318.9,275
		c0,0,0,0-53.2,0S341.9,45.5,159.1,53c0,0,26.8-7.4,41.4-7.4c65.3,0,118.3,53,118.3,118.3V275z"/>
</g>
</svg>
