<?xml version="1.0" encoding="utf-8"?>
<!-- Generator: Adobe Illustrator 25.4.1, SVG Export Plug-In . SVG Version: 6.00 Build 0)  -->
<svg version="1.1" id="レイヤー_1" xmlns="http://www.w3.org/2000/svg" xmlns:xlink="http://www.w3.org/1999/xlink" x="0px"
	 y="0px" viewBox="0 0 212 213" style="enable-background:new 0 0 212 213;" xml:space="preserve">
<style type="text/css">
	.st0{clip-path:url(#SVGID_00000023238593265493674180000006492873267795048105_);}
	.st1{fill:#545454;}
</style>
<g>
	<defs>
		<rect id="SVGID_1_" x="11" y="13.85" width="191.53" height="180.31"/>
	</defs>
	<clipPath id="SVGID_00000169538223309526129040000004995905212708960640_">
		<use xlink:href="#SVGID_1_"  style="overflow:visible;"/>
	</clipPath>
	
		<g id="グループ_672" transform="translate(0 -0.004)" style="clip-path:url(#SVGID_00000169538223309526129040000004995905212708960640_);">
		<path id="パス_2435" class="st1" d="M11.13,63c-0.67-3.15,1.26-4.82,4.27-3.72l15.67,5.69C46,33.65,77.67,13.75,112.37,13.89
			c18.32,0,36.21,5.58,51.28,16c40.96,28.32,51.2,84.47,22.89,125.43s-84.47,51.2-125.43,22.89c-0.33-0.18-0.64-0.4-0.93-0.64
			c-2.54-2.13-2.87-5.93-0.74-8.47c2.13-2.54,5.93-2.87,8.47-0.74c3.05,2.1,6.24,3.99,9.55,5.64
			c38.67,19.25,85.62,3.51,104.88-35.16s3.51-85.62-35.16-104.88S61.57,30.44,42.31,69.11l16.95,6.15c3.02,1.1,3.42,3.6,0.89,5.6
			l-34.19,26.75c-0.59,0.63-1.41,1.02-2.27,1.06c-1.86,0.1-3.44-1.32-3.55-3.18l-9.02-42.45"/>
	</g>
</g>
</svg>
