<?xml version="1.0" encoding="utf-8"?>
<!-- Generator: Adobe Illustrator 25.4.1, SVG Export Plug-In . SVG Version: 6.00 Build 0)  -->
<svg version="1.1" id="レイヤー_1" xmlns="http://www.w3.org/2000/svg" xmlns:xlink="http://www.w3.org/1999/xlink" x="0px"
	 y="0px" viewBox="0 0 212 213" style="enable-background:new 0 0 212 213;" xml:space="preserve">
<style type="text/css">
	.st0{fill:#535354;}
</style>
<path class="st0" d="M204.07,78.4l-13.59-29.42c-1.13-2.44-3.14-4.29-5.66-5.22c-2.52-0.93-5.25-0.82-7.69,0.31l-18.29,8.45
	c-8-8.27-17.83-14.67-28.58-18.61V15.06c0-5.55-4.51-10.06-10.06-10.06H87.78c-5.55,0-10.06,4.51-10.06,10.06v18.84
	c-10.1,3.71-19.45,9.62-27.18,17.2l-15.56-7.24c-5.03-2.34-11.03-0.15-13.37,4.88L7.93,78.11c-2.34,5.03-0.15,11.03,4.88,13.37
	l15.17,7.06c-0.22,2.35-0.33,4.71-0.33,7.04c0,5.97,0.69,11.92,2.06,17.68l-14.23,9.06c-2.27,1.44-3.84,3.68-4.42,6.31
	c-0.58,2.62-0.11,5.32,1.33,7.59l17.4,27.34c1.44,2.27,3.68,3.84,6.31,4.42c2.62,0.58,5.32,0.11,7.59-1.33l15.06-9.58
	c6.38,4.7,13.37,8.35,20.84,10.86l-0.03,18.44c0,2.69,1.04,5.22,2.94,7.12c1.9,1.9,4.42,2.95,7.11,2.96l32.41,0.05
	c0,0,0.01,0,0.01,0c5.54,0,10.05-4.5,10.06-10.05l0.03-19.89c6.72-2.67,13.01-6.27,18.72-10.72l17.17,11
	c1.68,1.07,3.55,1.59,5.41,1.59c3.32,0,6.57-1.64,8.49-4.63l17.48-27.29c2.99-4.67,1.62-10.91-3.05-13.9l-17.66-11.31
	c1.07-5.14,1.62-10.41,1.62-15.69c0-1.66-0.06-3.35-0.17-5.05l19.01-8.79c2.44-1.13,4.3-3.14,5.22-5.66
	C205.3,83.57,205.19,80.84,204.07,78.4z M143.45,105.59c0,21.76-17.7,39.46-39.46,39.46c-21.76,0-39.46-17.7-39.46-39.46
	c0-21.76,17.7-39.47,39.46-39.47C125.74,66.12,143.45,83.83,143.45,105.59z"/>
</svg>
