<?xml version="1.0" encoding="utf-8"?>
<!-- Generator: Adobe Illustrator 25.4.1, SVG Export Plug-In . SVG Version: 6.00 Build 0)  -->
<svg version="1.1" xmlns="http://www.w3.org/2000/svg" xmlns:xlink="http://www.w3.org/1999/xlink" x="0px" y="0px"
	 viewBox="0 0 400 400" style="enable-background:new 0 0 400 400;" xml:space="preserve">
<style type="text/css">
	.st0{display:none;}
	.st1{display:inline;fill:#6A6A6A;}
	.st2{display:inline;}
	.st3{fill-rule:evenodd;clip-rule:evenodd;}
	.st4{fill:#FFFFFF;}
	.st5{fill-rule:evenodd;clip-rule:evenodd;fill:#E47B7C;}
	.st6{fill:#E47B7C;}
	.st7{fill-rule:evenodd;clip-rule:evenodd;fill:#6A6A6A;}
	.st8{fill:#6A6A6A;}
	.st9{display:inline;fill:#E47B7C;}
</style>
<g id="レイヤー_1" class="st0">
	<path class="st1" d="M324.3,94.4c-2.8-3.1-5.7-6.2-8.7-9.2l0,0l0,0l0,0c-3-3-6.1-5.9-9.2-8.7C239,16.2,143.8,3.9,65,39.6
		c-5.6,2.5-7.2,10-3,14.4c0.1,0.1,0.2,0.2,0.3,0.3c0.7,0.6,1.3,1.3,1.9,1.9c26.5,26.5,37.6,62.6,33.4,97.1c-0.1,1.1-0.2,2.1-0.4,3.2
		c-0.4,2.8,0.6,5.5,2.5,7.4l0.1,0.1c1.5,1.5,3.6,2.5,5.9,2.6c0.4,0,0.7,0.1,1.1,0.1c26.7,1.9,52.9,11.7,75,29.1l-157,157
		c-6.5,6.5-6.5,17,0,23.4l0,0c6.5,6.5,17,6.5,23.4,0l157-157c17.4,22.1,27.1,48.3,29.1,75c0,0.4,0.1,0.7,0.1,1.1
		c0.1,2.3,1.1,4.4,2.7,5.9l0,0c1.9,1.9,4.6,2.9,7.4,2.5c1.1-0.2,2.1-0.3,3.2-0.4c34.5-4.2,70.6,6.9,97.1,33.4
		c0.6,0.6,1.3,1.3,1.9,1.9c0.1,0.1,0.1,0.1,0.2,0.2c4.4,4.4,11.8,3.1,14.4-2.5C397,257.3,384.7,161.9,324.3,94.4z M308.3,124.9
		c-3.9,57.5-27.7,104.8-47.7,135.1c-7.7-28.5-22.7-54.7-43.8-75.8c-21.2-21.2-47.4-36.2-75.9-43.8c30.2-20,77.5-43.9,135.1-47.7
		c10.4-0.7,21.2-0.7,32.2,0C309,103.7,309,114.4,308.3,124.9z"/>
</g>
<g id="レイヤー_9" class="st0">
	<g id="bell" class="st2">
		<path id="XMLID_4_" class="st3" d="M194,391.2c29.6,0,53.7-23.5,53.7-52.6H140.4C140.4,367.7,164.4,391.2,194,391.2z"/>
		<path id="XMLID_5_" class="st3" d="M359,293.5l-39.1-43.2c-5.9-6.5-9.1-14.8-9.1-23.5v-61.4c0-56.7-41-106.1-96.4-115.9v-9.8
			c0-11.2-9.1-20.3-20.3-20.3c-11.2,0-20.3,9.1-20.3,20.3v9.7c-54.8,9.4-96.4,56.3-96.4,112.7v64.6c0,8.7-3.2,17-9.1,23.5
			l-39.1,43.2c-8.2,9.1-1.6,23.3,10.7,23.3H194h154.2C360.6,316.8,367.1,302.5,359,293.5z"/>
	</g>
	<g id="XMLID_3_" class="st2">
		
			<ellipse id="XMLID_2_" transform="matrix(0.7071 -0.7071 0.7071 0.7071 -10.3646 240.2332)" class="st4" cx="284.8" cy="132.6" rx="90.8" ry="90.8"/>
		
			<ellipse id="XMLID_1_" transform="matrix(0.1582 -0.9874 0.9874 0.1582 108.7962 392.868)" class="st5" cx="284.8" cy="132.6" rx="69.8" ry="69.8"/>
	</g>
</g>
<g id="レイヤー_9のコピー">
	<g>
		<path class="st4" d="M194,391.2c29.6,0,53.7-23.5,53.7-52.6H140.4C140.4,367.7,164.4,391.2,194,391.2z"/>
		<path class="st4" d="M319.9,250.3c-5.9-6.5-9.1-14.8-9.1-23.5v-7.1c-8.2,2.5-16.9,3.8-26,3.8c-50.1,0-90.8-40.6-90.8-90.8
			c0-32.4,16.9-60.8,42.4-76.8c-7.1-2.8-14.5-4.9-22.1-6.3v-9.8c0-11.2-9.1-20.3-20.3-20.3c-11.2,0-20.3,9.1-20.3,20.3v9.7
			c-54.8,9.4-96.4,56.3-96.4,112.7v64.6c0,8.7-3.2,17-9.1,23.5l-39.1,43.2c-8.2,9.1-1.6,23.3,10.7,23.3H194h154.2
			c12.3,0,18.9-14.3,10.7-23.3L319.9,250.3z"/>
		<path class="st6" d="M354.6,132.6c0-38.6-31.3-69.8-69.8-69.8c-9.1,0-17.8,1.8-25.8,4.9c31.4,21.4,51.7,57.7,51.7,97.7v32
			C336.5,187.1,354.6,162,354.6,132.6z"/>
		<path class="st6" d="M259,67.7C233.2,78,215,103.2,215,132.6c0,38.6,31.3,69.8,69.8,69.8c9.2,0,17.9-1.8,26-5v-32
			C310.8,125.4,290.5,89.1,259,67.7z"/>
	</g>
</g>
<g id="レイヤー_5" class="st0">
	<path class="st1" d="M200.5,27.6l-188.1,163l27.7,32l28-24.2v168.6h81.9v-116c0-18.6,15.1-33.8,33.8-33.8h33.6
		c18.6,0,33.8,15.1,33.8,33.8v116h81.9V198.4l28,24.2l27.7-32L200.5,27.6z"/>
</g>
<g id="レイヤー_4" class="st0">
	<g class="st2">
		<path class="st7" d="M42.5,28h229.6c4.6,0,8.4,3.8,8.4,8.4v100.5h-25.7V53.6H115.1l62.4,19.8c5.1,1.6,9.2,7.5,9.2,13V319h68.1
			v-66.3h25.7v83.5c0,4.6-3.8,8.4-8.4,8.4h-85.3v26.3c0,10.3-7.6,16.3-17,13.3L44.9,344.7h-2.4c-2.4,0-4.7-1.1-6.2-2.7l-2.2-0.7v-5
			V36.4v0l0-0.2h0l0-0.2l0,0c0-0.7,0.2-1.4,0.4-2C35.5,30.5,38.7,28,42.5,28"/>
		<polygon class="st7" points="211.9,159.5 291.7,159.5 291.7,120.9 381.7,194.6 291.7,268.3 291.7,230.1 211.9,230.1 		"/>
	</g>
</g>
<g id="レイヤー_2" class="st0">
	<g class="st2">
		<path class="st8" d="M361,103.4H223.4c-6.8-6-15.7-9.6-25.4-9.6c-21.2,0-38.4,17.2-38.4,38.4c0,21.2,17.2,38.4,38.4,38.4
			c9.7,0,18.6-3.6,25.4-9.6H361c15.9,0,28.8-12.9,28.8-28.8C389.8,116.3,376.9,103.4,361,103.4z"/>
		<path class="st8" d="M198,183c-28.1,0-50.8-22.7-50.8-50.8c0-28.1,22.7-50.8,50.8-50.8c10.3,0,19.9,3.1,27.9,8.3h54.5
			c-5.1-41-40-72.7-82.4-72.7c-45.8,0-83,37.2-83,83l0,203.3c0,45.8,37.2,83,83,83s83-37.2,83-83V174.7h-55.1
			C217.9,179.9,208.3,183,198,183z M215.4,286v31.3c0,9.6-7.8,17.4-17.4,17.4c-9.6,0-17.4-7.8-17.4-17.4V286c-6.1-5-10-12.7-10-21.2
			c0-15.1,12.3-27.4,27.4-27.4c15.1,0,27.4,12.3,27.4,27.4C225.4,273.3,221.5,280.9,215.4,286z"/>
	</g>
</g>
<g id="レイヤー_3" class="st0">
	<g class="st2">
		
			<ellipse transform="matrix(0.7071 -0.7071 0.7071 0.7071 1.7518 165.4754)" class="st8" cx="200.6" cy="80.6" rx="66.3" ry="66.3"/>
		<path class="st8" d="M370,350.5h-44v-83.4c0-56.7-56.1-102.7-125.4-102.7c-69.2,0-125.4,46-125.4,102.7v83.4H30
			c-6.2,0-11.3,5.1-11.3,11.3c0,6.2,5.1,11.3,11.3,11.3H370c6.2,0,11.3-5.1,11.3-11.3C381.2,355.5,376.2,350.5,370,350.5z
			 M286.3,256.5l-7,78.4c-0.7,7.5-7.4,13.7-15,13.7h-129c-7.6,0-14.3-6.2-15-13.7l-7-78.4c-0.7-7.5,5-13.7,12.5-13.7h148
			C281.3,242.8,286.9,248.9,286.3,256.5z"/>
		<circle class="st8" cx="199.7" cy="297.8" r="12.4"/>
	</g>
</g>
<g id="レイヤー_6" class="st0">
	<rect x="40.3" y="315.4" class="st1" width="320.5" height="53"/>
	<path class="st1" d="M200.5,23.2c-78.1,0-141.3,63.3-141.3,141.3v132.7h282.7V164.5C341.9,86.5,278.6,23.2,200.5,23.2z M318.9,275
		c0,0,0,0-53.2,0S341.9,45.5,159.1,53c0,0,26.8-7.4,41.4-7.4c65.3,0,118.3,53,118.3,118.3V275z"/>
</g>
<g id="レイヤー_6のコピー" class="st0">
	<rect x="40.3" y="315.4" class="st1" width="320.5" height="53"/>
	<path class="st9" d="M200.5,23.2c-78.1,0-141.3,63.3-141.3,141.3v132.7h282.7V164.5C341.9,86.5,278.6,23.2,200.5,23.2z M318.9,275
		c0,0,0,0-53.2,0S341.9,45.5,159.1,53c0,0,26.8-7.4,41.4-7.4c65.3,0,118.3,53,118.3,118.3V275z"/>
</g>
<g id="ログアウト" class="st0">
	<g class="st2">
		<g id="XMLID_00000178904602052615579900000018290946699942023098_">
			<path id="XMLID_00000018931225662210076310000014594836198094886528_" class="st4" d="M257.7,391.3H67.6
				c-10.7,0-19.4-8.7-19.4-19.4V29.3c0-10.7,8.7-19.4,19.4-19.4h190.1c7.1,0,12.9,5.8,12.9,12.9l0,0c0,7.1-5.8,12.9-12.9,12.9H74.1
				v329.7h183.6c7.1,0,12.9,5.8,12.9,12.9l0,0C270.6,385.5,264.8,391.3,257.7,391.3z"/>
		</g>
		<path id="XMLID_00000182503804721480631800000011584793964754382241_" class="st4" d="M261.5,108.5L261.5,108.5
			c-9.2,8.5-9.7,22.8-1.2,32L295,178H155.1c-12.5,0-22.6,10.1-22.6,22.6v0c0,12.5,10.1,22.6,22.6,22.6H295l-34.7,37.5
			c-8.5,9.2-7.9,23.5,1.2,32l0,0c9.2,8.5,23.5,7.9,32-1.2l67.9-73.3c9.2-9.9,9.2-25.3,0-35.2l-67.9-73.3
			C284.9,100.6,270.6,100,261.5,108.5z"/>
	</g>
</g>
</svg>
