<?xml version="1.0" encoding="utf-8"?>
<!-- Generator: Adobe Illustrator 25.4.1, SVG Export Plug-In . SVG Version: 6.00 Build 0)  -->
<svg version="1.1" id="レイヤー_1" xmlns="http://www.w3.org/2000/svg" xmlns:xlink="http://www.w3.org/1999/xlink" x="0px"
	 y="0px" viewBox="0 0 640 409" style="enable-background:new 0 0 640 409;" xml:space="preserve">
<style type="text/css">
	.st0{fill:#314B57;}
	.st1{fill:#009B73;}
</style>
<g>
	<path class="st0" d="M158.81,328.07c-20.99,0-37.98-6.73-50.5-20.01c-12.33-13.07-18.58-30.84-18.58-52.8V39.64
		c0-6.51,5.28-11.8,11.8-11.8s11.8,5.28,11.8,11.8v215.62c0,15.97,3.97,27.94,12.15,36.62c7.99,8.48,18.89,12.6,33.33,12.6
		c14.47,0,25.47-4.14,33.63-12.66c8.29-8.66,12.32-20.62,12.32-36.55V39.64c0-6.51,5.28-11.8,11.8-11.8s11.8,5.28,11.8,11.8v215.62
		c0,21.99-6.35,39.78-18.87,52.86C196.82,321.36,179.77,328.07,158.81,328.07z"/>
	<path class="st0" d="M538.38,383.02c-4.12,0-8.11-2.16-10.28-6l-76.84-136.05l-29.16,34.87v95.38c0,6.51-5.28,11.8-11.8,11.8
		s-11.8-5.28-11.8-11.8v-99.66c0-2.77,0.97-5.45,2.75-7.57l42.84-51.23c2.49-2.97,6.26-4.51,10.12-4.18
		c3.86,0.35,7.29,2.57,9.2,5.95l85.22,150.89c3.21,5.67,1.2,12.87-4.47,16.07C542.34,382.53,540.34,383.02,538.38,383.02z
		 M613.82,383.02c-4.04,0-7.97-2.08-10.17-5.81L485.83,177.43c-2.53-4.3-2.09-9.72,1.1-13.55l109.91-131.8
		c4.17-5.01,11.61-5.68,16.61-1.51c5.01,4.17,5.68,11.61,1.51,16.61L510.37,172.61l113.6,192.63c3.31,5.61,1.44,12.84-4.17,16.15
		C617.93,382.49,615.86,383.02,613.82,383.02z M410.3,195.81c-1.32,0-2.64-0.22-3.93-0.68c-4.71-1.67-7.86-6.12-7.86-11.12V39.64
		c0-6.51,5.28-11.8,11.8-11.8s11.8,5.28,11.8,11.8v111.06l95.92-118.48c4.1-5.07,11.53-5.84,16.59-1.75
		c5.07,4.1,5.85,11.53,1.75,16.59L419.47,191.43C417.19,194.25,413.79,195.81,410.3,195.81z"/>
	<path class="st1" d="M158.81,385.82c-37.69,0-69.68-11.95-95.11-35.52C38.02,326.51,25,295.31,25,257.59V39.64
		c0-6.51,5.28-11.8,11.8-11.8s11.8,5.28,11.8,11.8v217.95c0,31.32,10.19,55.99,31.15,75.41c21.22,19.67,47.08,29.23,79.07,29.23
		c31.99,0,57.85-9.56,79.07-29.23c20.97-19.43,31.16-44.09,31.16-75.41V39.64c0-6.51,5.28-11.8,11.8-11.8h64.74
		c6.51,0,11.8,5.28,11.8,11.8v331.59c0,6.51-5.28,11.8-11.8,11.8c-6.51,0-11.8-5.28-11.8-11.8V51.43h-41.15v206.16
		c0,37.72-13.02,68.91-38.71,92.71C228.5,373.87,196.5,385.82,158.81,385.82z"/>
</g>
</svg>
